<svg xmlns="http://www.w3.org/2000/svg" width="146" height="158" fill="none"><path fill="#fff" d="m84.164 73.69-.686 4.147-.35 2.112-6.037 36.424s2.507.271 5.898.363c.663.019 1.36.031 2.08.032 5.355.012 11.91-.538 14.61-3.043 4.038-3.744 6.491-23.623 3.953-31.83-1.162-3.761-8.623-6.042-13.964-7.214a88.023 88.023 0 0 0-1.7-.352c-2.242-.439-3.804-.639-3.804-.639Z"/><path fill="#371A45" d="m83.478 77.837-.35 2.112-4.793 28.922-1.244 7.502.152.016.098.009.092.008c.024.004.047.005.073.008l.03.003a4.768 4.768 0 0 0 .185.017 9.323 9.323 0 0 0 .341.031c.051.003.106.009.16.013l.172.014.23.019c.16.012.33.025.51.037.158.013.325.023.498.034.201.013.41.027.628.039.805.047 1.728.09 2.728.117.196.006.392.009.593.015l.426.007c.345.005.702.009 1.06.009 5.358.014 11.91-.538 14.61-3.043 3.326-3.083 5.578-17.106 4.85-26.545-.474 8.105-2.368 16.64-4.875 18.963-1.239 1.149-5.135-3.839-4.765-6.413.954-6.637.87-15.331-4.682-21.131-.144-.152-3.782-.107-6.727-.763Z" opacity=".35"/><path fill="#371A45" d="m76.205 117.046 7.327-44.205.73.092c.182.023 4.516.584 9.154 1.892 6.42 1.808 10.102 4.11 10.947 6.843 2.647 8.564.079 28.681-4.165 32.616-5.11 4.739-22.454 2.927-23.19 2.848l-.803-.086Zm8.592-42.499-6.819 41.142c3.472.299 17.155 1.21 21.183-2.524 1.714-1.59 3.365-6.999 4.204-13.777.863-6.948.685-13.566-.46-17.269-1.325-4.284-12.894-6.814-18.109-7.57v-.002Z"/><path fill="#fff" d="m102.741 98.838-7.252-.315a1.423 1.423 0 0 0-1.423 1.003c-.695 2.269-2.029 7.594.015 9.647 1.696 1.705 4.757 1.892 6.717.596 2.193-1.449 3.019-6.729 3.298-9.358a1.416 1.416 0 0 0-.337-1.08 1.426 1.426 0 0 0-1.018-.493Z"/><path fill="#371A45" d="M94.067 99.527c-.697 2.268-2.03 7.593.015 9.646 1.696 1.705 4.756 1.892 6.718.596 1.347-.893 2.179-3.233 2.684-5.514-.461 1.115-1.081 1.991-1.786 2.53-4.042 3.09-6.254-1.381-6.254-1.381s-.59.952-.97.965c-1.593.053-.687-4.806-.16-7.31a1.375 1.375 0 0 0-.247.468Z" opacity=".35"/><path fill="#371A45" d="M95.091 110.788a5.38 5.38 0 0 1-1.55-1.076c-2.258-2.268-1.098-7.495-.205-10.41a2.186 2.186 0 0 1 2.186-1.541l7.253.315a2.186 2.186 0 0 1 2.08 2.416c-.392 3.685-1.34 8.397-3.636 9.914-1.782 1.178-4.224 1.27-6.127.382Zm7.87-11.126a.66.66 0 0 0-.252-.061l-7.253-.315a.658.658 0 0 0-.662.463c-1.329 4.337-1.392 7.66-.172 8.883 1.399 1.407 4.035 1.634 5.755.497 1.361-.9 2.469-4.191 2.96-8.801a.665.665 0 0 0-.376-.67v.004Z"/><path fill="#371A45" d="M97.157 111.171a3.73 3.73 0 0 1-.56-.531 6.066 6.066 0 0 1-1.053-1.775 7.72 7.72 0 0 1-.507-2.593c-.01-.432.006-.863.048-1.293.029-.432.1-.839.164-1.257.064-.419.152-.831.257-1.241.054-.206.111-.41.178-.614.067-.211.15-.416.248-.615a.2.2 0 0 1 .112-.099.2.2 0 0 1 .254.113c.02.048.02.101.001.15l-.009.02c-.066.181-.12.367-.16.556-.046.196-.08.395-.113.594-.063.401-.105.805-.134 1.212-.028.406-.054.82-.042 1.218 0 .397.022.794.068 1.189.088.77.31 1.518.652 2.213a4.892 4.892 0 0 0 .97 1.334c.063.062.129.117.195.171.054.044.111.085.17.122a.68.68 0 0 1-.605 1.214.74.74 0 0 1-.097-.06l-.037-.028ZM92.835 79.656a67.025 67.025 0 0 1 2.69.01c.898.02 1.794.057 2.693.117.899.06 1.798.138 2.7.263.902.126 1.808.28 2.726.547a.762.762 0 0 1 .519.948.763.763 0 0 1-.997.503l-.007-.003c-.774-.287-1.617-.494-2.466-.672-.85-.179-1.72-.315-2.591-.436-.872-.12-1.751-.217-2.632-.299-.88-.081-1.765-.15-2.644-.193l-.004-.001a.394.394 0 0 1 .013-.787v.002Z"/><path fill="#fff" d="M56.982 65.57c-.038 2.079.263 4.297.188 5.368l-3.274 2.33-3.71 2.637a60.578 60.578 0 0 1-3.082-1.117c-17.453-6.862-18.617-17.38-17.347-21.56 2.514-8.272 9.231-11.132 12.209-12.182.483-.168.976-.31 1.475-.425 9.225-2.17 29.201 1.09 31.004 10.554 1.017 5.328-4.153 11.233-14.347 9.762-2.499-.362-3.07 2.026-3.116 4.633Z"/><path fill="#371A45" d="M57.076 68.445c.066 1.027.134 1.924.094 2.493l-6.983 4.965c-20.395-6.781-21.771-18.262-20.43-22.675a18.451 18.451 0 0 1 1.57-3.699c-.088.245-1.11 3.52-1.162 3.785-1 4.959 6.672 15.314 10.324 15.202.899-.026 1.657-.208 2.047-.166.71.077.613 1.099 1.592 1.483.897.352 1.67-1.076 2.254-.575.47.402.52 2.025 1.331 2.349l9.363-3.162Z" opacity=".35"/><path fill="#371A45" d="M43.797 74.206c-5.828-2.718-10.06-6.107-12.62-10.117-2.758-4.318-2.919-8.556-2.151-11.082 1.852-6.096 6.12-10.362 12.686-12.68 6.18-2.182 19.477-1.208 27.356 3.318 3.516 2.02 5.576 4.505 6.126 7.387.495 2.599-.336 5.255-2.28 7.289-2.796 2.925-7.508 4.153-12.928 3.37-5.816-.84-12.951-1.053-14.339.066-.064.052-.094.095-.096.112a.763.763 0 1 1-1.523-.106c.022-.32.155-.786.661-1.194 2.732-2.205 14.995-.464 15.516-.389 4.924.712 9.155-.35 11.606-2.914 1.599-1.672 2.286-3.84 1.882-5.949-.462-2.424-2.274-4.56-5.387-6.349-7.41-4.258-20.332-5.234-26.088-3.2-6.08 2.146-10.028 6.077-11.73 11.682-1.442 4.743.87 15.388 19.94 21.73a.764.764 0 0 1-.481 1.448 57.498 57.498 0 0 1-6.15-2.422Z"/><path fill="#fff" d="M129.767 74.496c-.82 1.14-1.955 2.262-3.405 3.316-10.595 7.695-34.63 6.518-34.63 6.518s-.532 4.131-1.033 11.686l-.035.535c-.15 2.322-.295 4.953-.422 7.873a423.2 423.2 0 0 0-.34 11.418c-.169 10.053-2.092 22.518-2.092 22.518s7.463 7.148 4.781 12.567c-.147.298-.32.583-.518.851-3.498 4.78-23.299-5.795-23.84-9.084-.648-3.937-.266-6.906-.16-12.385.077-4.058.119-8.265-2.038-12.7-2.58-4.714-9.017-7.756-13.367-9.316-6.254-2.241-8.972 1.003-10.978 3.336-3.342 3.882-6.88 13.44-12.371 14.077-3.002.348-23.257-6.392-21.3-13.51.4-1.448 1.161-2.458 2.094-3.156 3.068-2.301 7.995-1.23 7.995-1.23s2.92-7.431 5.215-11.198c5.662-9.312 19.972-8.12 19.972-8.12s.402-.97 1.374-4.262c1.203-4.066 1.97-7.278 2.436-9.441.442-2.065.61-3.183.61-3.183l.412-3.831.234-2.165 8.622-.04 32.625-.16a100.55 100.55 0 0 0 3.752-.543c10.417-1.68 26.999-5.162 34.573-.234 3.858 2.511 4.404 6.29 1.834 9.863Z"/><path fill="#371A45" d="M129.767 74.496c-.82 1.14-1.955 2.262-3.405 3.316-10.595 7.695-34.63 6.518-34.63 6.518s-.532 4.131-1.033 11.686l-1.569-.011c.659-5.305-5.481-5.114-4.941-7.131.272-1.018 3.637-.567 3.538-2.773-.1-2.206-5.12-3.199-4.377-4.595.573-1.07 2.934.238 4.82.577 1.888.34.422-3.263.608-4.13.289-1.355 2.505.963 5.869 2.23 13.8 5.206 29.303-2.347 35.12-5.687ZM92.592 150.926c-.148.298-.321.583-.518.851-3.498 4.78-23.3-5.795-23.84-9.084-.649-3.938-.266-6.906-.161-12.386.077-4.057.12-8.264-2.038-12.699-2.58-4.715-9.016-7.756-13.366-9.316-6.255-2.241-8.973 1.003-10.979 3.336-3.341 3.882-6.88 13.439-12.37 14.076-3.003.349-23.258-6.391-21.3-13.509.4-1.448 1.16-2.458 2.094-3.157-.373 1.356-.042 3.191 2.356 5.398 5.39 4.957 15.872 10.3 19.449 6.373 3.577-3.927 4.606-8.583 6.488-12.481 1.495-3.099 3.006-7.324 5.597-7.615 1.359-.154 1.976 1.912 3.719 2.474 1.743.562 3.513-3.18 4.7-2.691 1.464.601.067 3.023 2.596 5.428 2.282 2.171 9.292 5.26 12.889 3.973 3.434-1.229.732 2.544.795 4.031.119 2.865 6.657 1.242 6.516 3.311-.065.951-2.616 3.381-3.676 7.125-1.327 4.68-2.09 13.387 2 18.673 2.904 3.756 13.507 9.22 19.049 7.889Z" opacity=".35"/><path fill="#371A45" d="M17.202 122.791c-3.336-1.556-6.52-3.509-8.376-5.673-1.483-1.732-2.004-3.456-1.543-5.127 1.407-5.112 7.055-5.57 10.348-5.048.744-1.844 3.09-7.526 5.039-10.73 5.248-8.628 17.274-8.64 20.103-8.517.203-.578.58-1.71 1.162-3.683 2.305-7.796 3.014-12.471 3.021-12.518a.764.764 0 0 1 1.51.225c-.028.193-.728 4.815-3.067 12.725-.973 3.292-1.383 4.297-1.4 4.338l-.213.516-.556-.046c-.138-.012-13.908-1.038-19.256 7.754-2.23 3.665-5.127 11.007-5.156 11.081l-.238.604-.635-.137c-.312-.068-7.696-1.589-9.19 3.841-.317 1.153.097 2.407 1.23 3.728 4.43 5.164 17.347 9.043 19.245 8.822 3.442-.399 6.201-4.958 8.637-8.98 1.122-1.854 2.18-3.602 3.245-4.836l.051-.06c2.019-2.347 5.07-5.894 11.765-3.495 3.944 1.414 10.979 4.549 13.778 9.668l.016.032c2.275 4.672 2.19 9.121 2.116 13.047-.027 1.421-.074 2.693-.115 3.814-.118 3.244-.204 5.587.264 8.433.268 1.629 9.138 7.431 16.65 9.228 3.007.717 5.075.551 5.822-.47 3.574-4.883-4.1-12.344-4.176-12.417l-.286-.275.06-.393c.02-.124 1.917-12.527 2.082-22.414.33-19.708 1.821-31.48 1.836-31.597l.09-.7.705.034c.238.012 23.889 1.075 34.144-6.374 3.07-2.23 4.727-4.784 4.666-7.19-.047-1.821-1.106-3.456-3.063-4.729-6.566-4.27-20.53-1.92-30.727-.202-2.62.441-5.096.858-7.09 1.098a.763.763 0 1 1-.182-1.516c1.958-.236 4.417-.65 7.02-1.087 10.444-1.76 24.749-4.169 31.812.427 2.397 1.56 3.696 3.623 3.754 5.968.073 2.923-1.805 5.93-5.294 8.466-9.787 7.108-30.25 6.827-34.403 6.69-.318 2.783-1.458 13.813-1.742 30.735-.151 9.004-1.72 20.049-2.043 22.236 1.499 1.53 8.028 8.725 4.067 14.139-1.166 1.594-3.659 1.948-7.407 1.052-6.61-1.578-17.31-7.466-17.803-10.465-.493-2.998-.405-5.403-.285-8.736.041-1.116.087-2.38.114-3.788.071-3.749.152-7.997-1.953-12.333-2.563-4.667-9.209-7.608-12.946-8.948-5.707-2.045-8.14.781-10.09 3.054l-.052.06c-.98 1.139-2.007 2.835-3.095 4.632-2.617 4.322-5.583 9.22-9.767 9.706-1.552.183-7.058-1.27-12.203-3.669Z"/><path fill="#371A45" d="M93.643 64.257c-5.562 8.995-15.164 13.794-24.814 13.42a26.908 26.908 0 0 1-9.494-2.136 27.255 27.255 0 0 1-5.153-2.882c-.013-.006-.02-.015-.032-.023a27.747 27.747 0 0 1-5.74-5.468 28.552 28.552 0 0 1-4.525-8.295 29.503 29.503 0 0 1-.16-18.862c9.225-2.17 29.202 1.09 31.004 10.553 1.018 5.328-4.153 11.233-14.347 9.762-2.497-.361-3.069 2.026-3.114 4.633l32.625-.16a97.275 97.275 0 0 0 3.75-.542Z" opacity=".35"/><path fill="#fff" d="M43.145 53.583a30.381 30.381 0 0 0 8.714 12.68 30.848 30.848 0 0 0 12.172 6.453 30.253 30.253 0 0 0 6.534.996c10.686.449 21.296-4.729 27.317-14.48 8.871-14.359 4.42-33.19-9.937-42.06A30.51 30.51 0 0 0 75.343 12.8a30.716 30.716 0 0 0-14.964 2.06 30.538 30.538 0 0 0-14.496 12.252c-5.105 8.26-5.8 17.997-2.738 26.47Z"/><path fill="#371A45" d="M58.95 70.955a30.934 30.934 0 0 1-3.175-1.713c-.51-.32-.957-.613-1.364-.897a30.574 30.574 0 0 1-11.34-14.734c-3.202-8.863-2.202-18.536 2.743-26.54a30.618 30.618 0 0 1 14.533-12.287 30.808 30.808 0 0 1 15.002-2.062c.95.109 1.912.265 2.857.465.377.077.724.157 1.06.244a30.569 30.569 0 0 1 8.72 3.673c14.373 8.882 18.842 27.8 9.963 42.172-5.817 9.421-16.312 14.983-27.389 14.517a30.462 30.462 0 0 1-10.439-2.324 28.035 28.035 0 0 1-1.171-.514Zm-15.729-17.4a30.403 30.403 0 0 0 12.64 15.55 30.41 30.41 0 0 0 12.957 4.403c.58.057 1.167.099 1.749.122 11.019.464 21.458-5.07 27.244-14.44 8.833-14.298 4.387-33.116-9.91-41.95a30.41 30.41 0 0 0-9.728-3.899c-.94-.199-1.896-.354-2.843-.461a30.651 30.651 0 0 0-14.923 2.052 30.459 30.459 0 0 0-14.458 12.22c-4.92 7.962-5.914 17.585-2.728 26.4v.003Z"/><path fill="#371A45" d="M97.88 59.233c-6.02 9.75-16.63 14.928-27.318 14.48a31.173 31.173 0 0 1-1.752-.124 30.613 30.613 0 0 1-12.993-4.415 31.36 31.36 0 0 1-3.96-2.91 30.374 30.374 0 0 1-8.713-12.68 30.756 30.756 0 0 1-1.75-8.207 30.51 30.51 0 0 0 11.064 14.035 30.474 30.474 0 0 0 16.106 5.434c10.686.45 21.297-4.729 27.318-14.48a30.412 30.412 0 0 0 4.481-18.266c3.347 8.623 2.753 18.658-2.484 27.133Z" opacity=".35"/><path fill="#371A45" d="M58.72 71.446a31.437 31.437 0 0 1-3.229-1.744 31.627 31.627 0 0 1-4.04-2.967 31.115 31.115 0 0 1-8.891-12.94c-3.259-9.02-2.241-18.864 2.791-27.01a31.157 31.157 0 0 1 16.793-13.232 31.342 31.342 0 0 1 13.266-1.367c.968.11 1.947.269 2.908.472a31.107 31.107 0 0 1 9.95 3.987c14.628 9.038 19.177 28.29 10.14 42.917-5.92 9.587-16.6 15.248-27.872 14.774a31.021 31.021 0 0 1-11.815-2.89ZM43.73 53.37a29.866 29.866 0 0 0 12.42 15.276 30.124 30.124 0 0 0 8.04 3.469 29.743 29.743 0 0 0 6.4.976c10.822.454 21.077-4.98 26.76-14.185 8.678-14.042 4.309-32.528-9.735-41.205a29.856 29.856 0 0 0-12.345-4.283 30.115 30.115 0 0 0-14.659 2.017A29.909 29.909 0 0 0 46.41 27.439c-4.832 7.821-5.809 17.273-2.68 25.932Z"/><path fill="#371A45" d="M58.645 71.61a31.584 31.584 0 0 1-7.312-4.738 31.296 31.296 0 0 1-8.943-13.017c-3.277-9.07-2.254-18.971 2.808-27.164A31.336 31.336 0 0 1 62.09 13.378a31.529 31.529 0 0 1 13.34-1.374 31.557 31.557 0 0 1 4.017.724 31.273 31.273 0 0 1 8.916 3.761c14.713 9.09 19.287 28.455 10.199 43.166-5.954 9.642-16.696 15.336-28.034 14.86a31.178 31.178 0 0 1-11.883-2.906ZM43.9 53.31a29.689 29.689 0 0 0 12.344 15.183 29.89 29.89 0 0 0 4.214 2.164 29.55 29.55 0 0 0 10.14 2.256c10.757.452 20.95-4.95 26.599-14.1 8.623-13.957 4.28-32.332-9.676-40.956a29.708 29.708 0 0 0-12.27-4.259 29.92 29.92 0 0 0-14.571 2.004 29.727 29.727 0 0 0-14.116 11.932C41.761 35.307 40.791 44.7 43.9 53.309v.001Z"/><path fill="#371A45" d="M46.729 60.546c15.838 15.04 41.251 9.852 45.741-11.308 3.055-14.398-8.683-28.505-22.699-30.554-10.2-1.49-20.813 1.515-27.456 16.715 0 0-1.901 7.182-.654 12.343 1.246 5.162 3.328 9.972 3.328 9.972l1.74 2.832Z"/><path fill="#220F2D" d="M92.47 49.236c-4.49 21.161-29.904 26.35-45.742 11.31l-.351-.575c18.956 6.413 40.125-2.321 45.064-23.633 1.506 4.041 1.97 8.455 1.029 12.898Z"/><path fill="#371A45" d="M58.645 71.61a31.573 31.573 0 0 1-7.312-4.738 31.297 31.297 0 0 1-8.943-13.017c-3.277-9.07-2.254-18.971 2.808-27.164a31.293 31.293 0 0 1 11.955-11.21l.074-.038.08-.024c3.883-1.117 8.227-1.337 12.913-.651 8.347 1.217 16.347 6.281 21.402 13.54 4.644 6.672 6.343 14.398 4.78 21.763-1.701 8.002-6.041 14.404-12.556 18.512-6.81 4.296-15.516 5.605-23.883 3.592l-.12-.04a28.778 28.778 0 0 1-1.198-.526ZM43.9 53.31a29.689 29.689 0 0 0 12.344 15.183 29.907 29.907 0 0 0 4.155 2.136c7.93 1.892 16.16.651 22.59-3.404 6.14-3.872 10.235-9.92 11.842-17.49 1.471-6.922-.137-14.207-4.525-20.51-4.805-6.9-12.4-11.711-20.317-12.869-4.426-.647-8.515-.45-12.158.583a29.69 29.69 0 0 0-11.266 10.594C41.762 35.307 40.79 44.701 43.9 53.31v.001Z"/><path fill="#371A45" d="M54.898 67.089a32.842 32.842 0 0 1-8.722-5.961l-.077-.073-1.843-3.026c-.086-.199-2.125-4.932-3.373-10.1-1.28-5.297.579-12.436.659-12.737l.04-.116c5.813-13.3 15.337-19.083 28.306-17.187 7.45 1.088 14.59 5.605 19.101 12.082 4.146 5.955 5.662 12.856 4.266 19.432-2.014 9.493-8.325 16.539-17.314 19.33-6.883 2.137-14.366 1.47-21.043-1.644Zm-7.54-7.053c7.819 7.378 18.58 10.123 28.108 7.164 8.417-2.612 14.33-9.222 16.22-18.131 1.302-6.137-.123-12.594-4.014-18.18-4.261-6.12-10.996-10.387-18.016-11.413C57.51 17.7 48.57 23.146 43.08 35.659c-.172.68-1.762 7.23-.636 11.893 1.148 4.752 3.041 9.264 3.265 9.789l1.65 2.695Z"/><path fill="#fff" d="M102.333 58.295c-1.494 1.433-3.3 2.25-5.179 2.172-4.391-.185-7.519-5.202-6.987-11.206.044-.494.111-.98.2-1.455.993-5.295 4.688-9.255 8.718-9.085 4.391.184 7.521 5.2 6.988 11.205-.304 3.436-1.742 6.452-3.74 8.37Z"/><path fill="#371A45" d="M102.333 58.295c-1.495 1.433-3.3 2.25-5.179 2.172-4.391-.185-7.52-5.202-6.987-11.206.044-.494.111-.98.2-1.455.52 1.168 1.859 3.046 4.728 1.272l4.289 1.849s2.387 3.387 2.949 7.368Z" opacity=".35"/><path fill="#371A45" d="M94.577 60.648c-.924-.43-1.775-1.08-2.521-1.93-2.04-2.325-3.02-5.797-2.689-9.529.57-6.415 4.944-11.471 9.75-11.27 1.921.08 3.673.962 5.066 2.55 2.04 2.324 3.019 5.797 2.689 9.529-.57 6.416-4.944 11.471-9.75 11.27a6.64 6.64 0 0 1-2.545-.62Zm6.407-20.652a5.047 5.047 0 0 0-1.932-.473c-3.964-.165-7.59 4.236-8.085 9.809-.287 3.248.57 6.361 2.296 8.328 1.098 1.25 2.455 1.943 3.927 2.006 3.964.164 7.591-4.236 8.085-9.81.286-3.248-.573-6.362-2.298-8.328-.595-.68-1.268-1.194-1.993-1.532Z"/><path fill="#fff" d="M99.071 59.275c3.519.623 7.049-2.695 7.884-7.412.835-4.717-1.341-9.046-4.859-9.67-3.52-.622-7.05 2.697-7.884 7.413-.835 4.718 1.34 9.046 4.86 9.67Z"/><path fill="#371A45" d="M97.841 58.968a5.392 5.392 0 0 1-.641-.354c-3.138-2.02-4.178-7.198-2.319-11.544 1.041-2.433 2.801-4.185 4.83-4.807 1.493-.457 2.969-.258 4.267.578 3.137 2.02 4.178 7.198 2.318 11.544-1.041 2.433-2.801 4.185-4.829 4.806-1.252.384-2.494.305-3.626-.223Zm5.427-16.328c-1.096-.511-2.296-.588-3.508-.216-1.98.607-3.703 2.324-4.723 4.713-1.828 4.273-.816 9.359 2.255 11.336 1.258.808 2.682 1.003 4.127.56 1.981-.608 3.703-2.326 4.724-4.714 1.828-4.274.816-9.36-2.256-11.337a5.208 5.208 0 0 0-.619-.342Z"/><path fill="#371A45" d="M94.176 53.847c-.259-1.623-.073-3.322.454-4.887.9 3.65 3.995 5.382 7.187 3.886 2.064-.967 3.693-3.06 4.506-5.482.058.23.105.47.144.716.656 4.133-1.565 8.774-4.958 10.366-3.394 1.593-6.678-.468-7.333-4.6Z" opacity=".35"/><path fill="#371A45" d="M97.883 59.71c-.687-.32-1.322-.804-1.882-1.44-1.649-1.871-2.459-4.878-2.165-8.042.5-5.392 3.862-9.514 7.655-9.386 1.43.049 2.742.705 3.793 1.899 1.649 1.871 2.459 4.878 2.166 8.043-.5 5.391-3.862 9.514-7.655 9.385a4.891 4.891 0 0 1-1.912-.459Zm4.839-16.952a3.294 3.294 0 0 0-1.286-.311c-2.896-.099-5.589 3.459-6.003 7.93-.254 2.732.407 5.286 1.771 6.834.753.853 1.667 1.322 2.644 1.355 2.896.098 5.589-3.459 6.003-7.93.253-2.732-.407-5.286-1.771-6.834a4.163 4.163 0 0 0-1.358-1.044Z"/><path fill="#fff" d="M76.392 25.878s-13.233-1.08-21.547 5.413a12.509 12.509 0 0 0-3.94 5.27c-1.08 2.73-1.425 4.77-1.66 6.577-.71 5.498-.013 8.207-.013 8.207-2.751-3.308-4.087-6.834-3.54-11.418a20.745 20.745 0 0 1 .286-1.715l.003-.006c.318-1.2.708-2.379 1.167-3.532 1.628-4.084 4.737-9.281 10.365-11.155 10.522-3.501 19.405 1.843 18.879 2.359ZM85.219 45.255c2.236-.299 3.766-2.653 3.418-5.259-.348-2.606-2.443-4.476-4.68-4.177-2.235.299-3.766 2.653-3.418 5.26.348 2.605 2.443 4.475 4.68 4.176ZM86.163 51.016c.91-.201 1.457-1.223 1.223-2.283-.234-1.06-1.161-1.757-2.071-1.556-.91.201-1.457 1.224-1.223 2.284.234 1.06 1.161 1.756 2.071 1.555Z" opacity=".5"/><path fill="#fff" d="M44.022 86.822a4.045 4.045 0 1 0 3.42-7.332 4.045 4.045 0 0 0-3.42 7.332Z"/><path fill="#371A45" d="M41.796 82.226a4.046 4.046 0 1 0 7.873 1.86c.139-.582.146-1.188.02-1.773a4.045 4.045 0 0 1-7.118-1.681 3.995 3.995 0 0 0-.775 1.594Z" opacity=".35"/><path fill="#371A45" d="M43.698 87.514a4.816 4.816 0 0 1-2.646-5.463 4.805 4.805 0 1 1 2.646 5.463Zm-1.16-5.112a3.283 3.283 0 1 0 6.39 1.507 3.283 3.283 0 0 0-6.39-1.508Z"/><path fill="#fff" d="m46.033 94.453 19.192 7.195a4.427 4.427 0 0 0 5.682-2.584l3.829-10.213c.746-1.991-.053-4.198-1.79-5.288a4.314 4.314 0 0 0-.794-.394l-19.19-7.194a4.42 4.42 0 0 0-5.68 2.584l-3.035 8.088-.797 2.124c-.854 2.274.312 4.83 2.583 5.682Z"/><path fill="#fff" d="M91.177 93.358s2.48 1.097 1.9 4.279c-.37 2.028-2.35 3.614-2.35 3.614s-8.549.653-20.186-4.703c0 0-2.17-4.956 2.759-6.672 0 0 10.997 4.044 17.877 3.482Z"/><path fill="#fff" d="m46.033 94.453 19.192 7.195a4.427 4.427 0 0 0 5.682-2.584l3.829-10.213c.746-1.991-.053-4.198-1.79-5.288a4.314 4.314 0 0 0-.794-.394l-19.19-7.194a4.42 4.42 0 0 0-5.68 2.584l-3.035 8.088-.797 2.124c-.854 2.274.312 4.83 2.583 5.682Z"/><path fill="#fff" d="M91.177 93.358s2.48 1.097 1.9 4.279c-.37 2.028-2.35 3.614-2.35 3.614s-8.549.653-20.186-4.703c0 0-2.17-4.956 2.759-6.672 0 0 10.997 4.044 17.877 3.482Z"/><path fill="#371A45" d="M71.187 102.211a4.43 4.43 0 0 1-5.683 2.584L46.313 97.6a4.427 4.427 0 0 1-2.584-5.684l.798-2.122 3.034-8.09a4.421 4.421 0 0 1 5.68-2.582l19.19 7.194c.278.103.544.234.794.392 1.736 1.092 2.536 3.298 1.789 5.289l-.506 1.349c2.666.906 10.51 3.383 16.156 3.202-.15 2.322-.205 2.996-.332 5.916-3.105.869-8.08 1.847-18.39-2.271l-.755 2.018Z" opacity=".35"/><path fill="#fff" d="m46.033 94.453 19.192 7.195a4.427 4.427 0 0 0 5.682-2.584l3.829-10.213c.746-1.991-.053-4.198-1.79-5.288a4.314 4.314 0 0 0-.794-.394l-19.19-7.194a4.42 4.42 0 0 0-5.68 2.584l-3.035 8.088-.797 2.124c-.854 2.274.312 4.83 2.583 5.682Z"/><path fill="#371A45" d="m46.033 94.453 19.192 7.195a4.427 4.427 0 0 0 5.682-2.584l3.829-10.213c.746-1.991-.053-4.198-1.79-5.288-1.36.315-2.227.519-2.227.519-4.006 7.848-5.925 14.06-18.33 8.448-4.276-1.935-6.729-4.327-8.142-5.883l-.797 2.124c-.854 2.274.312 4.83 2.583 5.682Z" opacity=".35"/><path fill="#371A45" d="M45.391 95.011a5.184 5.184 0 0 1-2.656-6.508l3.83-10.214a5.181 5.181 0 0 1 6.663-3.03l19.191 7.195a5.19 5.19 0 0 1 3.031 6.663L71.62 99.33a5.18 5.18 0 0 1-6.662 3.031l-19.191-7.195c-.13-.047-.254-.099-.376-.156Zm26.756-11.017a3.59 3.59 0 0 0-.263-.11l-19.191-7.195a3.654 3.654 0 0 0-4.699 2.136l-3.83 10.214a3.664 3.664 0 0 0 2.137 4.7l19.19 7.194a3.655 3.655 0 0 0 4.7-2.136l3.828-10.215a3.655 3.655 0 0 0-1.872-4.588Z"/><path fill="#fff" d="M45.291 94.088c.234.148.483.27.742.365l19.192 7.195a4.43 4.43 0 0 0 4.67-1.019c.446-.443.79-.977 1.009-1.566l1.703-4.536.562-1.497 1.566-4.179a4.425 4.425 0 0 0-2.584-5.682l-4.147-1.553a4.425 4.425 0 0 1 1.848 5.319l-2.067 5.517-1.763 4.698c-.852 2.272-3.41 3.436-5.68 2.584L45.29 94.09Z"/><path fill="#371A45" d="M45.29 94.088c.235.148.484.27.743.365l19.192 7.195a4.422 4.422 0 0 0 5.679-2.585l2.264-6.033c-.882.885-2.24 1.868-3.679 1.486-.79-.208-1.334-1.037-1.704-2.064l-1.763 4.699c-.852 2.271-3.41 3.436-5.681 2.584l-15.05-5.647Z" opacity=".35"/><path fill="#371A45" d="M45.4 95.015a4.861 4.861 0 0 1-.515-.278l.671-1.363 15.052 5.644a3.66 3.66 0 0 0 4.697-2.136l3.83-10.215a3.653 3.653 0 0 0-1.527-4.4l.664-1.368 4.146 1.553a5.19 5.19 0 0 1 3.03 6.666l-3.83 10.213a5.188 5.188 0 0 1-6.663 3.032l-19.192-7.196a4.76 4.76 0 0 1-.364-.152Zm25.077-11.66a5.167 5.167 0 0 1 .088 3.849l-3.83 10.214a5.138 5.138 0 0 1-2.706 2.891l-.093.041 1.556.584a3.664 3.664 0 0 0 4.697-2.138l3.83-10.214a3.663 3.663 0 0 0-2.136-4.7l-1.406-.526Z"/><path fill="#22A7F0" d="M60.339 89.289c-.14.38-.733 3.63-.733 3.63l2.155.794c1.485.547 3.255-.547 3.954-2.444.699-1.897.061-3.877-1.424-4.424l-2.155-.794s-1.57 2.622-1.797 3.238Z"/><path fill="#371A45" d="M60.339 89.289c-.14.38-.733 3.63-.733 3.63l2.155.794c1.485.547 3.255-.547 3.954-2.444.699-1.897.061-3.877-1.424-4.424l-2.155-.794s-1.57 2.622-1.797 3.238Z" opacity=".35"/><path fill="#371A45" d="m58.956 93.29.086-.474c.143-.776.612-3.33.76-3.725.238-.648 1.679-3.061 1.842-3.334l.244-.407 2.602.958c.888.327 1.554 1.061 1.878 2.068.308.957.266 2.056-.115 3.091-.807 2.19-2.91 3.439-4.689 2.784l-2.608-.962Zm1.922-3.803c-.073.211-.357 1.645-.62 3.062l1.704.628c1.186.437 2.63-.507 3.218-2.104.294-.798.329-1.63.1-2.345-.214-.665-.636-1.143-1.183-1.345l-1.71-.63c-.596 1.005-1.377 2.371-1.511 2.733l.002.001Z"/><path fill="#22A7F0" d="M59.611 92.917c1.485.547 3.255-.547 3.954-2.444.698-1.896.06-3.877-1.424-4.424-1.485-.547-3.255.547-3.953 2.444-.699 1.897-.062 3.877 1.423 4.424Z"/><path fill="#371A45" d="M63.559 90.476c-.698 1.896-2.468 2.99-3.953 2.444-1.485-.547-2.124-2.53-1.423-4.427.092-.251.206-.494.34-.724-.097 1.443.545 2.733 1.698 3.157 1.283.472 2.78-.279 3.612-1.718-.031.433-.123.86-.274 1.268Z" opacity=".35"/><path fill="#fff" d="M63.559 90.476c-.046.127-.1.252-.16.375.254-1.595-.395-3.08-1.651-3.544-1.384-.508-3.017.406-3.795 2.07.047-.3.124-.597.23-.883.697-1.895 2.468-2.99 3.952-2.444 1.485.547 2.122 2.528 1.424 4.426Z"/><path fill="#371A45" d="M59.19 93.365c-1.624-.757-2.318-2.97-1.545-5.068.384-1.036 1.063-1.899 1.918-2.427.9-.557 1.884-.683 2.77-.356 1.781.655 2.57 2.97 1.763 5.159-.382 1.037-1.063 1.899-1.918 2.427-.9.557-1.883.683-2.77.356a2.77 2.77 0 0 1-.217-.09Zm-.47-4.673c-.59 1.598-.1 3.25 1.084 3.69.55.202 1.179.111 1.772-.256.639-.395 1.152-1.05 1.446-1.849.588-1.597.098-3.253-1.084-3.689-.55-.202-1.18-.112-1.773.256-.639.395-1.152 1.05-1.446 1.848ZM51.785 97.134a.573.573 0 0 1-.299-.706l2.187-6.284a1.127 1.127 0 0 0-.168-1.055l-1.39-1.826a2.264 2.264 0 0 1-.326-2.17l3.11-8.383a.572.572 0 1 1 1.073.398l-3.11 8.382a1.127 1.127 0 0 0 .161 1.078l1.39 1.826a2.27 2.27 0 0 1 .34 2.126l-2.188 6.283a.573.573 0 0 1-.78.331Z"/><path fill="#fff" d="M91.177 93.358s2.48 1.097 1.9 4.279c-.37 2.028-2.35 3.614-2.35 3.614s-8.549.653-20.186-4.703c0 0-2.17-4.956 2.759-6.672 0 0 10.997 4.044 17.877 3.482Z"/><path fill="#371A45" d="M90.728 101.252s-8.548.653-20.187-4.703c0 0-1.415-3.231.634-5.38l-.005.047c-.152 1.589.771 3.093 2.243 3.712 10.715 4.5 18.397 3.914 18.397 3.914a8.36 8.36 0 0 0 1.294-1.373 2.377 2.377 0 0 1-.029.168c-.37 2.028-2.347 3.615-2.347 3.615Z" opacity=".35"/><path fill="#371A45" d="M71.174 97.669a3.116 3.116 0 0 1-1.75-2.256c-.468-2.524.39-4.555 2.423-5.718a3.123 3.123 0 0 1 2.56-.242c2.324.793 10.343 3.365 15.959 3.185.924-.03 1.799.329 2.4.986.693.754 1.439 2.086 1.062 4.148-.25 1.37-1.107 2.532-1.782 3.267a3.117 3.117 0 0 1-2.3.998c-2.591-.004-9.581-.435-18.503-4.339l-.07-.03Zm20-3.353a1.67 1.67 0 0 0-.76-.151c-5.714.183-13.443-2.223-16.5-3.266a1.595 1.595 0 0 0-1.308.12c-1.466.84-2.03 2.223-1.68 4.115a1.594 1.594 0 0 0 .929 1.166c8.658 3.79 15.397 4.209 17.893 4.211a1.584 1.584 0 0 0 1.176-.503c.538-.587 1.22-1.498 1.404-2.508.212-1.16-.02-2.117-.685-2.843a1.48 1.48 0 0 0-.47-.34h.001Z"/><path fill="#fff" d="M44.79 61.816c.167-2.412 10.816-1.529 15.306-.88 10.195 1.472 15.364-4.431 14.348-9.761-1.907-10.006-24.128-13.076-32.478-10.128-2.978 1.051-9.698 3.91-12.21 12.182"/><path fill="#371A45" d="M60.096 60.937c-4.192-.608-13.748-1.417-15.139.44-5.653-6.905 9.273-4.72 13.538-3.98 8.406 1.455 13.977-.275 15.87-3.19-1.04 4.267-6.002 7.923-14.269 6.73ZM45.706 62.23l-.84-.702a.747.747 0 0 1 .09-.149c.232.3.482.584.75.851Z" opacity=".35"/><path fill="#371A45" d="M44.467 62.508a.763.763 0 0 1-.44-.745c.023-.32.156-.786.662-1.194 2.732-2.205 14.995-.464 15.516-.389 4.924.712 9.155-.35 11.606-2.914 1.599-1.672 2.285-3.84 1.882-5.949-.462-2.424-2.274-4.56-5.387-6.349-7.41-4.258-20.332-5.234-26.088-3.2-6.08 2.146-10.028 6.077-11.73 11.682a.764.764 0 0 1-1.462-.444c1.852-6.096 6.12-10.363 12.686-12.68 6.181-2.182 19.477-1.209 27.356 3.318 3.516 2.02 5.576 4.505 6.127 7.387.495 2.598-.336 5.255-2.28 7.288-2.797 2.925-7.509 4.154-12.928 3.371-5.816-.84-12.952-1.054-14.34.066-.064.052-.093.095-.096.112a.763.763 0 0 1-1.084.64ZM110.975 83.782a.67.67 0 0 1-.274-.236c-5.376-8.062-2.932-20.584-2.825-21.114a.674.674 0 0 1 1.32.266c-.025.124-2.438 12.509 2.625 20.1a.677.677 0 0 1-.05.813.672.672 0 0 1-.796.17Z"/><path fill="#371A45" d="m47.544 60.983-.004-.002c-3.933-1.868-6.54-5.541-7.146-10.076-.582-4.35.826-8.569 3.67-11.012a.673.673 0 1 1 .877 1.022c-2.503 2.148-3.734 5.908-3.212 9.811.545 4.075 2.873 7.37 6.388 9.039a.673.673 0 1 1-.573 1.218ZM42.275 111.246a.675.675 0 0 1-.376-.74c1.133-5.787-10.899-14.25-15.63-17.025a.672.672 0 0 1-.066-1.117.674.674 0 0 1 .747-.045c.729.427 17.819 10.538 16.272 18.444a.675.675 0 0 1-.946.481l-.001.002ZM68.627 125.317a12.275 12.275 0 0 1-1.072-.56.671.671 0 0 1 .179-1.231.674.674 0 0 1 .51.074c4.513 2.679 17.73 5.042 20.572 1.513a.664.664 0 0 1 .452-.247.684.684 0 0 1 .663.347.672.672 0 0 1-.066.745c-2.15 2.669-7.776 2.433-10.938 2.054-3.757-.45-7.764-1.512-10.3-2.695ZM18.246 107.058c.156.027.261.05.384.08a9.079 9.079 0 0 1 1.02.31c.437.159.865.339 1.283.541.824.405 1.617.872 2.37 1.397.747.523 1.466 1.079 2.117 1.712.17.15.325.316.48.482.155.166.31.329.46.499.296.345.575.705.834 1.079-.412-.204-.8-.43-1.18-.657-.394-.215-.765-.448-1.146-.669l-1.134-.659c-.19-.106-.372-.223-.562-.327l-.57-.311a30.522 30.522 0 0 0-2.315-1.121 21.276 21.276 0 0 0-1.174-.473c-.197-.075-.393-.139-.588-.207l-.29-.093c-.09-.029-.2-.06-.261-.077l-.059-.016a.765.765 0 0 1-.525-.899.763.763 0 0 1 .86-.587l-.004-.004ZM76.149 138.04c.71-.781 1.676-1.314 2.686-1.674 1.018-.367 2.11-.502 3.198-.506.541.031 1.09.048 1.623.153.267.048.542.077.802.152l.784.214c.267.066.516.169.767.267s.503.197.751.301c.489.228.956.49 1.424.747a.762.762 0 0 1-.674 1.364l-.073-.034c-.447-.2-.882-.423-1.322-.63a26.504 26.504 0 0 1-.674-.272c-.22-.1-.448-.185-.679-.254l-.687-.226a2.777 2.777 0 0 0-.349-.092l-.35-.084c-.465-.138-.943-.172-1.42-.26a12.594 12.594 0 0 0-2.897.054c-1 .131-1.979.393-2.91.78Z"/></svg>
