<svg xmlns="http://www.w3.org/2000/svg" width="100" height="100" fill="none" class="astronault1" viewBox="0 0 103 125"><path fill="#F8F8F8" d="M57.34 104.457c-.401.007-.835.034-1.294.08-4.92.485-12.552 3.009-12.552 3.009l-8.68 12.62a1.877 1.877 0 0 1-2.188.694c-6.71-2.483-12.597-5.637-17.515-9.589a1.863 1.863 0 0 1-.577-2.112c.108-.281.234-.597.378-.937.808-1.876 2.217-4.442 4.25-5.655 3.405-2.03 7.972.714 7.972.714s6.101-8.951 8.103-11.183c2.002-2.23 8.736-4.976 8.736-4.976l12.032 8.506s6.066 8.753 1.336 8.829ZM99.637 92.64a6.608 6.608 0 0 1-1.465 4.084c-2.192 2.724-6.954 7.085-14.59 6.412-1.749-.153-3.287-1.363-4.637-3.288-7.151-10.176-9.094-40.358-9.094-40.358l9.897-8.123s9.669.34 13.217 3.517c1.55 1.387 3.096 5.986 4.311 12.108.604 3.043 1.129 6.464 1.527 10.055.318 2.858.556 5.82.696 8.782.11 2.287.155 4.573.138 6.81Z"/><path fill="#371A45" d="M85.148 104.031c-.532 0-1.078-.024-1.64-.073-4.967-.438-8.91-8.127-11.721-22.853-2.046-10.716-2.753-21.455-2.76-21.562a.826.826 0 1 1 1.648-.105c.006.106.708 10.754 2.735 21.37 2.58 13.514 6.219 21.152 10.244 21.506 7.275.64 11.816-3.55 13.875-6.106a5.8 5.8 0 0 0 1.282-3.575c.141-16.787-3.4-34.45-6.398-37.134-3.282-2.94-12.6-3.304-12.693-3.308a.825.825 0 0 1 .058-1.649c.407.014 10.01.39 13.736 3.727 3.71 3.322 7.085 21.972 6.947 38.377a7.459 7.459 0 0 1-1.647 4.6c-2.107 2.613-6.582 6.784-13.666 6.785Z"/><path fill="#F8F8F8" d="M99.497 85.83c-3.091 1.995-8.462 3.43-10.537 1.864l.26-11.002.134-5.526s3.881-2.852 7.922-4.174c1.868-.611 2.909 2.125 3.518 5.536.007.041.013.087.023.134.686 3.946.808 8.733.958 10.284.088.92-.852 1.961-2.278 2.883Z"/><path fill="#371A45" d="M91.527 89.184c-1.206 0-2.284-.24-3.066-.83a.825.825 0 0 1 .994-1.318c1.42 1.072 5.592.37 8.93-1.502 1.831-1.027 2.614-2.02 2.567-2.507a57.231 57.231 0 0 1-.129-1.888c-.194-3.267-.71-11.944-2.684-13.288-.193-.131-.37-.153-.608-.075-3.863 1.265-7.654 4.027-7.692 4.055a.824.824 0 1 1-.977-1.33c.163-.12 4.037-2.945 8.156-4.293.724-.237 1.433-.14 2.05.28 2.44 1.66 3.036 8.383 3.402 14.553.048.797.085 1.427.124 1.825.132 1.345-1.076 2.803-3.402 4.108-2.028 1.137-5.123 2.21-7.665 2.21Z"/><path fill="#371A45" d="M99.497 85.83c.11 2.286.158 4.572.14 6.81a6.609 6.609 0 0 1-1.465 4.085c-2.192 2.723-6.954 7.084-14.59 6.411-1.749-.153-3.287-1.363-4.637-3.288.126-4.458.748-4.785 1.243-9.117.533-4.695 1.448-7.746 2.06-8.432l6.972-5.607.334-.268s.247 2.613 3.831 2.49c1.84-.064 3.915-.733 5.417-1.868 1.423-1.078 2.327-2.576 2.014-4.384.686 3.945.807 8.732.958 10.284.089.92-.851 1.961-2.277 2.883Z" opacity=".25"/><path fill="#371A45" d="M99.906 70.124a44.38 44.38 0 0 0-3.795 1.335c-.846.371-1.826.742-2.473 1.36-.03.03-.038.05-.062.076 0 .017-.012.011-.016.028-.041.202-.068.407-.082.614-.075 1.326-.035 2.702 0 4.06.042 1.363.1 2.726.174 4.09-.206-1.35-.397-2.702-.573-4.058-.167-1.36-.343-2.708-.402-4.108 0-.223-.007-.48.026-.71.013-.186.11-.388.218-.535.738-.903 1.723-1.356 2.679-1.902a45.829 45.829 0 0 1 3.775-1.759c1.046-.39 1.598 1.155.533 1.511l-.002-.002ZM33.278 121.801a2.69 2.69 0 0 1-.935-.168c-6.95-2.57-12.92-5.84-17.747-9.718a2.684 2.684 0 0 1-.831-3.049c.738-1.948 2.366-5.447 4.976-7.006 2.989-1.783 6.63-.38 8.13.349 1.422-2.073 6.023-8.73 7.755-10.66 2.104-2.346 8.754-5.076 9.036-5.19a.825.825 0 1 1 .625 1.527c-1.824.745-6.894 3.052-8.431 4.765-1.944 2.165-7.976 11.008-8.038 11.097a.824.824 0 0 1-1.106.242c-.04-.024-4.192-2.462-7.125-.714-2.18 1.301-3.617 4.426-4.278 6.173a1.036 1.036 0 0 0 .322 1.178c4.688 3.766 10.503 6.948 17.285 9.456a1.04 1.04 0 0 0 1.221-.386l8.68-12.62a.826.826 0 0 1 .422-.316c.377-.125 9.29-3.054 14.09-3.131.715-.012.849-.265.89-.349.605-1.178-1.366-4.985-2.89-7.186a.826.826 0 1 1 1.357-.937c.725 1.046 4.277 6.393 3 8.879-.285.555-.92 1.222-2.33 1.245-4.108.066-11.821 2.476-13.337 2.963l-8.522 12.388a2.689 2.689 0 0 1-2.219 1.168Z"/><path fill="#371A45" d="M57.666 100.681c0 .515-.344.801-.744 1.831a44.134 44.134 0 0 1-.874 2.025c-4.92.485-12.552 3.009-12.552 3.009l-8.68 12.62a1.876 1.876 0 0 1-2.188.694c-6.71-2.483-12.597-5.636-17.515-9.589a1.863 1.863 0 0 1-.577-2.112c.108-.281.234-.597.378-.937l2.22 1.306c7.711 4.197 13.327 4.49 16.046-.611 0 0 5.263-7.093 9.466-10.023 4.203-2.929 3.636-7.597 3.636-7.597l10.126 8.123c.342.288 1.258.746 1.258 1.261Z" opacity=".25"/><path fill="#371A45" d="M43.593 108.004a.745.745 0 0 1-.163-.019c-8.379-2.037-13.447-8.593-13.659-8.871a.685.685 0 0 1 .638-1.097.688.688 0 0 1 .454.265c.056.072 5.004 6.451 12.891 8.368a.69.69 0 0 1 .52.749.69.69 0 0 1-.681.605Z"/><path fill="#F8F8F8" d="M26.92 90.285s6.486-1.331 11.627-5.108l-12.633.962"/><path fill="#371A45" d="M26.92 90.285s6.486-1.331 11.627-5.108l-12.633.962" opacity=".25"/><path fill="#371A45" d="M26.919 91.11a.825.825 0 0 1-.166-1.633c.063-.013 6.378-1.345 11.306-4.965a.825.825 0 0 1 .977 1.33c-5.225 3.84-11.679 5.196-11.95 5.252a.818.818 0 0 1-.167.017Z"/><path fill="#F8F8F8" d="m80.263 109.224-8.959 11.707c-2.232 2.918-6.334 3.693-9.44 1.73-2.754-1.742-5.082-4.993-6.514-8.421-1.076-2.566-1.648-5.231-1.529-7.444.049-.782.311-1.536.76-2.179l.92-1.343s-8.058-2.456-9.793-15.026v-3.281s-4.194-.28-4.5-.826c-.308-.547-4.186-13.895-4.186-13.895s5.254-8.547 12.806-11.863c3.56-1.563 8.533-2.163 12.791-2.362a80.477 80.477 0 0 1 8.653.062l6.714-.355s5.71 1.627 8.76 7.041c3.05 5.414 3.968 14.974 1.222 19.845 3.568 12.138 2.037 21.559-7.705 26.61Z"/><path fill="#371A45" d="M65.593 124.556a7.775 7.775 0 0 1-4.169-1.199c-5.313-3.362-8.704-11.451-8.426-16.606.056-.933.369-1.833.903-2.6l.346-.506c-2.327-1.131-7.92-4.889-9.355-15.285a.798.798 0 0 1-.008-.112v-2.515c-3.911-.323-4.224-.881-4.396-1.19-.305-.547-2.8-9.048-4.26-14.065a.825.825 0 0 1 .09-.662c.22-.357 5.479-8.805 13.178-12.187 7.651-3.36 21.26-2.408 21.835-2.366a.825.825 0 0 1-.12 1.646c-.137-.01-13.777-.964-21.052 2.232-6.434 2.826-11.235 9.713-12.24 11.238 1.376 4.728 3.5 11.922 3.962 13.228.574.208 2.386.44 3.882.54a.825.825 0 0 1 .77.824v3.223c1.66 11.86 9.133 14.272 9.208 14.294a.836.836 0 0 1 .538.517.825.825 0 0 1-.097.739l-.92 1.342a3.45 3.45 0 0 0-.617 1.754c-.254 4.688 2.97 12.153 7.66 15.123 2.708 1.714 6.372 1.04 8.342-1.534l8.961-11.705a.834.834 0 0 1 .276-.231c8.662-4.49 11.046-12.878 7.292-25.645a.824.824 0 0 1 .073-.638c2.443-4.334 1.85-13.583-1.22-19.033-2.84-5.04-8.217-6.64-8.27-6.654a.825.825 0 1 1 .454-1.587c.246.07 6.072 1.787 9.253 7.431 2.977 5.284 4.156 14.983 1.388 20.343 1.84 6.395 2.184 11.654 1.052 16.075-1.236 4.822-4.296 8.551-9.099 11.088l-8.848 11.562c-1.556 2.029-3.952 3.121-6.366 3.121Z"/><path fill="#F8F8F8" d="M51.814 72.662H69.22a2.825 2.825 0 0 1 2.825 2.825v10.538a2.826 2.826 0 0 1-2.755 2.824l-17.405.432a2.825 2.825 0 0 1-2.895-2.825v-10.97a2.825 2.825 0 0 1 2.825-2.824Z"/><path fill="#371A45" d="M51.811 90.108a3.65 3.65 0 0 1-3.647-3.65V75.486a3.655 3.655 0 0 1 3.65-3.65H69.22a3.655 3.655 0 0 1 3.65 3.65v10.538a3.63 3.63 0 0 1-3.56 3.649l-17.404.432a1.953 1.953 0 0 1-.094.002Zm.003-16.621a2.001 2.001 0 0 0-2 2v10.97a2.002 2.002 0 0 0 2.05 2l17.405-.432a1.99 1.99 0 0 0 1.95-2V75.488a2.003 2.003 0 0 0-2-2l-17.405-.001Z"/><path fill="#F8F8F8" d="M46.799 72.852h17.405a2.825 2.825 0 0 1 2.825 2.826v10.537a2.825 2.825 0 0 1-2.755 2.825l-17.405.432a2.825 2.825 0 0 1-2.895-2.825v-10.97a2.823 2.823 0 0 1 2.825-2.825Z"/><path fill="#371A45" d="M58.791 89.977a.8.8 0 0 1-.8-.781c-.035-1.415-.077-3.632-.036-4.775-1.255-.313-5.018-.81-8.4-1.161a.8.8 0 0 1-.718-.76l-.458-9.61a.8.8 0 1 1 1.6-.077l.425 8.925c8.457.898 8.81 1.39 9.025 1.687a.855.855 0 0 1 .143.686c-.055.35-.034 2.844.02 5.045a.8.8 0 0 1-.78.82l-.02.001Zm-.782-6.212a.739.739 0 0 0 0-.001v.001Z"/><path fill="#371A45" d="M46.796 90.298a3.651 3.651 0 0 1-3.647-3.65v-10.97a3.654 3.654 0 0 1 3.65-3.651h17.405a3.654 3.654 0 0 1 3.65 3.65v10.538a3.63 3.63 0 0 1-3.56 3.65l-17.404.431-.094.002Zm.003-16.62a2.003 2.003 0 0 0-2 2v10.97a2.002 2.002 0 0 0 2.05 2l17.404-.432a1.989 1.989 0 0 0 1.95-2V75.678a2.002 2.002 0 0 0-2-2H46.8Z"/><path fill="#BCC4CC" d="m66.483 82.99-.064 1.208a1.511 1.511 0 0 1-1.454 1.429l-22.144.789-30.61 1.094a1.512 1.512 0 0 1-1.562-1.462l-.04-1.256a1.5 1.5 0 0 1 .566-1.222h.002a1.48 1.48 0 0 1 .89-.334l30.527-1.06h.062l22.266-.773a1.51 1.51 0 0 1 1.56 1.586Z"/><path fill="#CEB7FF" d="m66.483 82.99-.045.837a1.514 1.514 0 0 0-1.518-1.14l-22.242.774-.032-1.286 22.278-.773a1.511 1.511 0 0 1 1.559 1.588Z" opacity=".61"/><path fill="#BCC4CC" d="m42.867 86.303-.05-.004-31.64-2.728h-.002l-1.201-2.63L.839 60.96a1.566 1.566 0 0 1 .163-1.584l.71-.966a1.57 1.57 0 0 1 1.183-.634l26.518-1.403a4.189 4.189 0 0 1 4.126 2.66l.055.137 9 23.01.156 2.363.117 1.76Z"/><path fill="#CEB7FF" d="m42.62 82.558-8.623-22.042a4.19 4.19 0 0 0-4.126-2.659L3.353 59.261a1.57 1.57 0 0 0-1.183.637l-.71.965a1.563 1.563 0 0 0-.299.794L.84 60.96a1.566 1.566 0 0 1 .163-1.584l.71-.966a1.57 1.57 0 0 1 1.183-.634l26.518-1.403a4.189 4.189 0 0 1 4.126 2.66l9.055 23.147.025.378Z" opacity=".61"/><path fill="#371A45" d="M12.156 88.211a2.208 2.208 0 0 1-2.204-2.14l-.04-1.257a2.212 2.212 0 0 1 2.13-2.277l52.856-1.836a2.208 2.208 0 0 1 2.281 2.322l-.063 1.209a2.196 2.196 0 0 1-2.126 2.09l-52.753 1.885a.608.608 0 0 1-.08.004Zm-.065-4.276a.813.813 0 0 0-.782.836l.039 1.257a.812.812 0 0 0 .84.786l52.753-1.884a.807.807 0 0 0 .781-.77l.064-1.208a.804.804 0 0 0-.232-.61.796.796 0 0 0-.607-.243l-52.856 1.836Z"/><path fill="#371A45" d="M42.867 87a.698.698 0 0 1-.696-.652l-.265-4.019-9.017-23.046a3.493 3.493 0 0 0-3.438-2.217L2.934 58.468a.869.869 0 0 0-.657.355l-.71.965a.873.873 0 0 0-.089.88L11.812 83.28a.699.699 0 0 1-1.27.58L.206 61.25a2.27 2.27 0 0 1 .236-2.288l.71-.965a2.261 2.261 0 0 1 1.707-.921l26.518-1.403a4.887 4.887 0 0 1 4.814 3.103l9.055 23.147c.025.066.04.136.045.208l.272 4.125a.696.696 0 0 1-.695.745Z"/><path fill="#371A45" d="m42.82 86.417-30.608 1.094a1.512 1.512 0 0 1-1.563-1.462l-.04-1.256a1.502 1.502 0 0 1 .566-1.222l-1.201-2.63c14.199-.356 23.13-5.515 22.16-18.668v-3.89l1.46.785 9 23.01h.062a719.207 719.207 0 0 1 .16 4.123c.003.039.003.078.005.116Z" opacity=".25"/><path fill="#F8F8F8" d="M15.388 88.438s1.335-5.072 6.713-4.197 6.636 6.217 2.86 8.162c-3.776 1.945-15.79 1.64-14.264-7.895 0 .002.457 2.786 4.69 3.93Z"/><path fill="#371A45" d="M24.96 92.404c-2.608 1.343-9.149 1.613-12.44-1.492 3.188.853 6.864.437 8.663-.491 2.545-1.311 2.803-4.165 1.052-6.154 5.261.945 6.47 6.208 2.725 8.137Z" opacity=".25"/><path fill="#371A45" d="M20.017 94.175c-2.531 0-5.288-.574-7.291-2.024-1.67-1.21-3.52-3.542-2.844-7.77a.825.825 0 0 1 1.629-.005c.015.077.415 1.983 3.36 3.036.856-2.018 3.126-4.675 7.362-3.985 3.052.498 5.278 2.425 5.671 4.909.313 1.985-.67 3.824-2.565 4.8-1.225.633-3.193 1.039-5.322 1.039Zm-8.528-6.87c.254 1.454.99 2.63 2.205 3.51 3.136 2.271 8.631 2.02 10.89.856 1.26-.65 1.892-1.8 1.69-3.077-.213-1.342-1.468-3.074-4.306-3.537-4.585-.749-5.735 3.414-5.782 3.591a.826.826 0 0 1-1.014.587c-1.725-.467-2.894-1.193-3.683-1.93Z"/><path fill="#F8F8F8" d="M77.028 76.352c-.303 2.558-1.41 5.04-3 6.26l-7.543-2.528s-1.783 2.06-6.272 1.602c-4.49-.458-6.55-5.005-6.55-5.005s-1.916 3.977-4.234 2.375c-.632-.437-.938-.975-1.037-1.538-.13-.732.083-1.508.373-2.16a6.76 6.76 0 0 1 1.458-2.064l4.297-4.231c3.623-4.767 8.696-1.335 12.204.686h8.582c1.545 1.53 2.019 4.102 1.722 6.603Z"/><path fill="#371A45" d="M74.028 83.44a.826.826 0 0 1-.263-.046l-7.087-2.375c-.827.657-2.886 1.861-6.55 1.488-3.369-.344-5.47-2.705-6.487-4.218-.553.752-1.38 1.608-2.411 1.881-.775.206-1.56.054-2.27-.437-1.503-1.04-1.84-2.713-.947-4.713a7.6 7.6 0 0 1 1.631-2.316l4.257-4.19c3.833-4.98 9.081-1.91 12.558.124l.488.285h8.358c.217 0 .426.086.58.239 1.462 1.446 2.2 3.843 2.029 6.577-.199 3.148-1.527 6.103-3.384 7.528a.825.825 0 0 1-.502.172Zm-7.543-4.18a.82.82 0 0 1 .262.045l7.1 2.38c1.309-1.233 2.264-3.592 2.419-6.046.133-2.104-.347-3.925-1.32-5.062h-8.222a.823.823 0 0 1-.412-.11 75.77 75.77 0 0 1-.688-.402c-4.247-2.485-7.714-4.1-10.449-.502a.829.829 0 0 1-.078.09l-4.298 4.23a5.962 5.962 0 0 0-1.282 1.812c-.826 1.85.05 2.456.379 2.683.412.285.714.25.908.2.952-.25 1.868-1.75 2.113-2.255a.826.826 0 0 1 1.494.02c.019.039 1.933 4.122 5.883 4.525 3.95.402 5.551-1.304 5.566-1.321a.825.825 0 0 1 .625-.286Z"/><path fill="#371A45" d="m52.938 76.284 3.069-3.865-1.623 4.66a.835.835 0 0 1-1.066.516c-.538-.176-.737-.876-.38-1.311ZM65.732 79.748l1.945-2.008-.44 2.683-1.505-.675Z"/><path fill="#371A45" d="M77.028 76.352c-.303 2.558-1.41 5.04-3 6.26l-7.543-2.528s-1.782 2.06-6.272 1.602c-4.49-.458-6.55-5.005-6.55-5.005s-1.916 3.977-4.234 2.375c-.632-.437-.938-.975-1.037-1.538l.254-.254s1.717 1.144 3.586-1.412c1.83-2.503 4.21-4.604 4.307-4.688-.06.146-1.92 4.796 1.83 6.975 3.815 2.212 8.43-3.852 8.43-3.852s2.747 2.403 9.383 2.06a6.85 6.85 0 0 1 .846.005Z" opacity=".25"/><path fill="#371A45" d="M55 102.62c2.356-1.697 6.117-3.403 8.947-1.935 1.307.786 2.437 1.853 3.422 2.998a19.684 19.684 0 0 1 2.482 3.634c-1.717-1.826-3.572-3.489-5.75-4.7-.82-.446-1.676-.793-2.62-.81-1.96.009-3.897 1.011-5.478 2.122-.886.655-1.87-.618-1.004-1.309Z"/><path fill="#371A45" d="M67.154 124.378a.804.804 0 0 1-.787-.654.8.8 0 0 1 .498-.895c.21-.081.509-.257.67-.837.82-2.97-2.947-10.836-5.791-14.488-2.954-3.793-5.332-3.423-5.431-3.405a.797.797 0 0 1-.828-1.223.81.81 0 0 1 .51-.347c.137-.029 3.393-.661 7.015 3.991 2.696 3.461 7.157 11.972 6.07 15.899-.257.931-.822 1.589-1.635 1.904a.805.805 0 0 1-.29.055ZM62.057 100.426a.365.365 0 0 0-.045.052c-.004.005-.017.027-.013.019l.121-.204a32.758 32.758 0 0 1 4.231-5.626c2.21-2.424 5.342-4.166 8.629-4.486.81-.053 1.623-.01 2.423.127-.8.062-1.581.179-2.332.392-2.233.642-4.18 1.965-5.838 3.558-.552.527-1.119 1.039-1.668 1.578-1.363 1.367-2.53 2.932-3.572 4.557-.094.151-.368.591-.456.743l-.075.128-.04.068c-.609 1.079-2.133.073-1.368-.904l.003-.002Z"/><path fill="#371A45" d="M76.552 114.76a.687.687 0 0 1-.677-.575c-1.355-8.161-6.454-14.8-11.369-14.8a.687.687 0 0 1 0-1.374c5.65 0 11.24 7.006 12.724 15.949a.687.687 0 0 1-.678.8ZM75.166 68.936l4.583.051-4.304 1.576c-1.265.37-1.596-1.554-.28-1.627ZM82.737 85.36c-4.216 0-8.739-1.864-9.028-1.985a.825.825 0 0 1 .637-1.522c2.724 1.139 10.368 3.4 12.986.235a.825.825 0 0 1 1.272 1.051c-1.382 1.672-3.58 2.22-5.867 2.22Z"/><path fill="#371A45" d="m72.757 69.688-.198-3.714 1.786 3.263a.848.848 0 0 1-.336 1.148c-.528.306-1.232-.092-1.25-.697h-.002ZM44.426 72.958c.136-1.209.348-2.407.635-3.59.285-1.162.649-2.317 1.161-3.395-.37 1.737-.39 3.491-.3 5.245.034.577.082 1.17.153 1.72.096 1.224-1.716 1.25-1.653.02h.004Z"/><path fill="#371A45" d="M87.968 82.614c3.568 12.138 2.037 21.559-7.705 26.61l-8.959 11.707c-2.232 2.918-6.334 3.693-9.44 1.73-2.754-1.742-5.082-4.993-6.514-8.422.268.216.538.451.81.706 9.305 8.695 8.346-3.891 8.346-3.891 8.933 7.719 4.304-4.981 4.23-5.188l3.308 2.596s.782-2.06 7.704-8.124c6.923-6.065 2.861-13.273 2.861-13.273-4.92.973-10.565-2.632-10.565-2.524 0 .108-4.481-.565-4.653-.45-.171.113-.038-3.715-.038-3.715l7.082 2.399 2.593-6.424c1.871-.027 5.995-.044 5.995-.044 4.703-9.84-4.016-15.23-4.016-15.23-10.636 4.68-23.687 1.27-24.172 1.133l7.785-6.192a80.508 80.508 0 0 1 8.652.062l6.714-.355s5.71 1.627 8.76 7.041c3.05 5.414 3.968 14.976 1.222 19.848ZM95.977 54.913l-.068-.027c.023-.012.068.027.068.027Z" opacity=".25"/><path fill="#F8F8F8" d="M60.222 62.168c16.906 0 30.612-13.706 30.612-30.613C90.834 14.65 77.128.944 60.222.944c-16.907 0-30.613 13.706-30.613 30.612 0 16.907 13.706 30.613 30.613 30.613Z"/><path fill="#371A45" d="M88.839 42.425c-6.005 15.807-23.684 23.753-39.488 17.748a30.457 30.457 0 0 1-12.53-8.876 30.62 30.62 0 0 0 6.942 3.715c15.807 6.003 33.483-1.941 39.488-17.746 4.088-10.763 1.707-22.395-5.219-30.618 11.046 7.887 15.853 22.495 10.807 35.778Z" opacity=".25"/><path fill="#371A45" d="M31.799 43.29c1.713 3.943 4.584 8.18 9.313 12.19 13.547 9.024 31.795 5.538 39.512-13.221l-1.219-15.547c-.649-2.396-1.976-4.669-3.795-6.728-11.163-12.62-40.83-17.219-45.694 7.222 0 0-1.932 7.307 1.883 16.085Z"/><path fill="#111A28" d="M31.8 43.29c1.712 3.943 4.583 8.18 9.312 12.19 13.547 9.024 31.795 5.538 39.512-13.222l-1.218-15.546c-.65-2.396-1.977-4.669-3.796-6.728 4.093 21.248-22.005 42.857-43.62 23.401l-.19-.094Z" opacity=".7"/><path fill="#371A45" d="M58.966 62.855c-.59 0-1.194-.02-1.808-.06a.772.772 0 1 1 .1-1.541c7.752.507 14.391-2.311 19.737-8.374 3.654-4.143 5.427-8.475 5.737-9.278l-.65-19.164c-3-6.804-9.07-12.276-17.107-15.421-8.228-3.222-17.15-3.378-23.866-.42a.772.772 0 0 1-.623-1.414c7.084-3.12 16.45-2.973 25.05.395 8.476 3.318 14.875 9.135 18.02 16.38.04.088.06.183.064.28l.661 19.469a.764.764 0 0 1-.044.285c-.074.205-1.84 5.084-6.048 9.872-3.674 4.18-9.926 8.99-19.223 8.991Z"/><path fill="#371A45" d="M56.303 60.988c-5.35 0-10.781-1.664-15.61-4.882a.755.755 0 0 1 .837-1.256c6.687 4.454 14.576 5.77 21.644 3.612 7.302-2.232 13.222-8.025 16.684-16.327l-1.2-15.293c-1.206-4.367-5.002-8.662-10.42-11.788-5.41-3.123-11.89-4.8-17.78-4.602-6.18.209-16.972 2.68-19.803 16.903a.755.755 0 1 1-1.48-.295C31.39 15.927 39.131 9.323 50.407 8.943c13.19-.443 27.076 7.77 29.725 17.573a.76.76 0 0 1 .024.138l1.22 15.544a.76.76 0 0 1-.054.347c-3.628 8.816-9.917 14.982-17.708 17.362a24.999 24.999 0 0 1-7.312 1.081Z"/><path fill="#371A45" d="M60.235 63.112a31.538 31.538 0 0 1-11.214-2.073c-16.256-6.176-24.459-24.428-18.283-40.684C33.73 12.48 39.61 6.241 47.294 2.788c7.684-3.454 16.253-3.706 24.128-.715C87.68 8.25 95.881 26.5 89.705 42.757c-2.991 7.876-8.871 14.114-16.555 17.568a31.45 31.45 0 0 1-12.915 2.787ZM60.21 1.854a29.604 29.604 0 0 0-12.157 2.625C40.82 7.729 35.287 13.6 32.47 21.014c-5.813 15.301 1.907 32.48 17.209 38.292 7.412 2.816 15.477 2.577 22.71-.674 7.232-3.25 12.766-9.122 15.583-16.534l.866.329-.866-.33c5.813-15.3-1.907-32.48-17.209-38.292A29.69 29.69 0 0 0 60.21 1.854Z"/><path fill="#F8F8F8" d="M91.83 33.878c.073 5.49-2.654 9.913-6.924 9.968-4.271.056-7.79-4.348-7.863-9.838-.072-5.49 3.331-9.985 7.601-10.041 4.27-.056 7.114 4.422 7.186 9.911Z"/><path fill="#371A45" d="M84.905 43.845c-4.27.055-7.79-4.348-7.86-9.837-.022-1.742.303-3.383.897-4.812.708 4.635 3.916 8.118 7.714 8.069 2.825-.038 4.975-1.984 6.086-4.887.054.492.084.99.089 1.499.07 5.49-2.654 9.912-6.926 9.968Z" opacity=".25"/><path fill="#371A45" d="M84.824 44.774c-2.322 0-4.502-1.13-6.148-3.188-1.613-2.02-2.522-4.706-2.56-7.566-.078-5.992 3.742-10.917 8.516-10.98 2.329-.024 4.448 1.131 5.939 3.273 1.37 1.967 2.147 4.65 2.185 7.553.082 6.259-3.215 10.846-7.839 10.907h-.093Zm-.1-19.881h-.067c-3.75.05-6.752 4.133-6.687 9.102.032 2.45.797 4.733 2.154 6.433 1.303 1.63 2.996 2.515 4.77 2.49 3.55-.044 6.078-3.843 6.01-9.028-.034-2.537-.692-4.852-1.853-6.519-.79-1.133-2.181-2.478-4.327-2.478Z"/><path fill="#371A45" d="M87.487 43.199c-3.737 0-6.821-4.173-6.89-9.346-.032-2.472.618-4.814 1.83-6.595 1.27-1.866 3.002-2.907 4.88-2.931.382-.005.763.035 1.136.118a.78.78 0 0 1 .525.41.772.772 0 0 1-.88 1.094 3.445 3.445 0 0 0-.762-.077c-1.358.017-2.644.818-3.621 2.255-1.035 1.521-1.59 3.548-1.563 5.706.058 4.327 2.451 7.82 5.344 7.82h.049a3.35 3.35 0 0 0 1.132-.208.77.77 0 0 1 1.054.75.774.774 0 0 1-.514.697c-.529.197-1.088.3-1.652.306h-.068Z"/><path fill="#CEB7FF" d="M52.47 15.236c-9.078 5.658-14.353 13.5-15.29 23.831-.075.828-1.247.942-1.477.143-3.782-13.105-1.924-24.433 16.325-25.371.782-.042 1.106.982.441 1.397ZM70.129 34.379l-.162.013a2.89 2.89 0 0 1-3.078-2.366c-.03-.168-.06-.33-.093-.487a2.874 2.874 0 0 1 2.228-3.401l.123-.025a2.89 2.89 0 0 1 3.341 1.982c.065.208.126.416.184.625a2.888 2.888 0 0 1-2.543 3.659ZM64.214 51.903a2.884 2.884 0 0 1-.943-4.04 20.67 20.67 0 0 0 2.886-6.96c.336-1.572 1.862-2.589 3.435-2.251l.405.086c1.587.34 2.593 1.925 2.202 3.5-.975 3.923-2.807 6.998-4.161 8.877a2.885 2.885 0 0 1-3.824.788Z" opacity=".5"/><path fill="#371A45" d="M48.989 97.683s10.145 2.846 18.04-3.028l-3.656 5.454-1.303.861c-2.751.154-4.983.779-6.379 2.166-2.793-1.023-5.104-2.732-6.702-5.453ZM45.75 67.718s-3.427 3.059-5.225 9.172l2.34 5.064.821-.554s.382-6.32.286-6.435c-.095-.114 1.02-1.287 1.277-2.975.258-1.688.24-2.727.24-2.727" opacity=".25"/><path fill="#371A45" d="m27.79 102.781 1.385 3.163-2.695-2.159a.853.853 0 0 1-.133-1.195c.378-.498 1.205-.382 1.44.191h.004ZM83.543 59.476a.825.825 0 0 1-.648-1.335c3.914-4.974 9.94-4.111 10.194-4.072a.825.825 0 0 1-.249 1.63c-.219-.032-5.341-.74-8.648 3.463a.825.825 0 0 1-.65.314Z"/><path fill="#371A45" d="M83.87 51.756s-4.694 2.16 1.885 9.324c-2.364-2.42-4.816-4.305-7.427-5.24l3.633-4.311" opacity=".25"/></svg>