<svg xmlns="http://www.w3.org/2000/svg" width="380" height="367" fill="none"><g opacity=".71"><path fill="url(#a)" d="M366.679 188.356a184.362 184.362 0 0 1-21.606 81.302 89.389 89.389 0 0 1-1.678 3.069 181.591 181.591 0 0 1-45.257 53.79 178.234 178.234 0 0 1-17.384 12.327 183.53 183.53 0 0 1-40.957 19.145c-1.049.341-2.019.682-3.041.97a183.519 183.519 0 0 1-156.278-23.78 183.57 183.57 0 0 1-55.36-59.195A183.613 183.613 0 0 1 .64 198.715c0-1.128-.157-2.255-.262-3.383a182.971 182.971 0 0 1 11.537-76.687c.865-2.308 1.81-4.589 2.753-6.897A187.001 187.001 0 0 1 33.022 78.44 171.468 171.468 0 0 1 44.06 64.225 40.462 40.462 0 0 1 46 61.944a180.935 180.935 0 0 1 38.938-33.282 47.948 47.948 0 0 1 3.041-1.888c2.806-1.731 5.664-3.357 8.548-4.93.918-.473 1.81-.971 2.622-1.417A183.297 183.297 0 0 1 218.598 3.443a183.326 183.326 0 0 1 104.135 60.94 93.083 93.083 0 0 1 2.963 3.593 180.627 180.627 0 0 1 13.739 19.276c.787 1.26 1.547 2.623 2.282 3.83a183.785 183.785 0 0 1 17.856 41.962c.288.996.55 1.993.813 2.963a182.038 182.038 0 0 1 6.083 38.789c.262 4.433.315 8.97.21 13.56Z"/><path fill="#974D8B" d="M362.562 222.135s-84.273 6.505-101.552-24.128c-17.28-30.633-34.847-38.422-62.327-35.17-27.479 3.252-62.064 25.361-95.469 16.418-33.405-8.943-96.78-43.877-96.78-43.877C.98 152.242.01 183.792.01 183.792s14.84 52.873 56.663 56.178c41.822 3.304 136.058 17.834 197.991 36.009 61.933 18.175 78.819 12.772 78.819 12.772a173.401 173.401 0 0 0 29.079-66.616Zm-301.353 1.6c-4.353-10.805 23.598-12.09 28.843-4.275 5.244 7.816-19.64 27.197-28.843 4.275ZM179.2 174.351c26.064-10.491 71.871 8.418 67.518 25.518-4.352 17.1-87.76-17.336-67.596-25.466l.078-.052Zm52.442 87.57c-.735-15.211 17.777-5.245 22.104 2.623 4.326 7.868-21.58 9.677-22.157-2.623h.053Zm80.969-.341a6.009 6.009 0 0 1 1.738-4.436 5.991 5.991 0 0 1 4.42-1.774 5.997 5.997 0 0 1 5.541 4.109c.258.777.355 1.6.284 2.416-.263 8.865-12.272 3.881-12.036-.315h.053Z" opacity=".5" style="mix-blend-mode:multiply"/><path fill="#5FCCCC" d="M366.652 188.356s-60.307-37.872-108.186-47.549c-47.879-9.678-100.608 20.325-161.728 9.809-31.648-5.429-61.12-23.158-82.123-38.973a181.913 181.913 0 0 1 18.354-33.308c11.144 11.173 41.953 40.258 70.796 50.749 36.001 13.113 69.196-1.154 129.818 2.334 51.917 2.99 115.633 34.357 132.833 43.274.315 4.537.368 9.074.236 13.664ZM73.742 280.227c-6.974 4.826-24.07-.446-22.602-3.829 2.832-6.399 29.55-1.023 22.602 3.829Zm13.11-9.992c2.623-3.724 18.093-.997 17.201 1.416-.891 2.413-19.455 1.993-17.096-1.416h-.104Zm173.922 49.017c5.244-5.796 32.697 5.246 31.255 11.802-1.442 6.557-36.342-6.032-31.255-11.802Zm-127.616-44.139c-69.117-13.664-107.504-26.699-123.473-32.94a182.728 182.728 0 0 0 26.221 50.066c29.367.472 57.869-25.571 136.767-1.18a524.56 524.56 0 0 1 108.186 47.654 181.48 181.48 0 0 0 17.384-12.327c-29.131-12.143-94.132-37.268-165.085-51.273Z" opacity=".51" style="mix-blend-mode:soft-light"/><path fill="#190024" d="M97.944 93.232c-1.39 6.661 25.303 19.014 30.416 11.513 5.113-7.5-27.532-25.387-30.416-11.513ZM107.069 115.052c1.101 5.246 7.263 5.377 7.997 3.043.734-2.335-8.994-8.314-7.997-3.043ZM260.774 181.589c7.42-7.501 10.829-3.252 12.559.682 1.731 3.934-14.867 1.679-12.559-.682ZM263.71 119.904c7.421-7.527 10.829-3.252 12.534.656 1.704 3.908-14.841 1.678-12.534-.656ZM162.368 318.308c7.42-7.527 10.829-3.278 12.559.656 1.731 3.934-14.867 1.678-12.559-.656ZM296.145 206.4c.892 3.802 7.526 4.51 7.106.183-.42-4.327-8.6-6.661-7.106-.183ZM158.304 49.381c.891 3.803 7.551 4.511 7.105.184-.445-4.328-8.6-6.662-7.105-.184Z" opacity=".1" style="mix-blend-mode:multiply"/><path fill="#5FCCCC" d="M286.496 298.455c2.884.787 13.11 7.868 12.691 13.847-.42 5.98-26.037.787-25.119-4.773.917-5.56 8.416-10.202 12.428-9.074ZM292.92 119.694c2.911.787 13.11 7.868 12.717 13.848-.393 5.98-26.037.787-25.119-4.773.917-5.56 8.417-10.202 12.402-9.075ZM221.574 45.578c.708 2.911-.315 15.316-5.9 17.86-5.585 2.544-13.398-22.345-8.102-24.26 5.297-1.914 13.006 2.361 14.002 6.4Z" opacity=".51" style="mix-blend-mode:soft-light"/><g fill="#E9E9A8" style="mix-blend-mode:soft-light"><path d="M261.718 90.845c.763-2.86.862-5.856.288-8.76a3.333 3.333 0 0 0-.498-1.31 2.624 2.624 0 0 0-2.465-.945 5.66 5.66 0 0 0-4.824 4.091 7.107 7.107 0 0 0 1.494 6.321 4.772 4.772 0 0 0 3.12 1.783 2.62 2.62 0 0 0 2.832-1.888.578.578 0 0 0-.944.184l.997.524ZM304.772 107.656a5.038 5.038 0 0 0-1.547-4.589 5.243 5.243 0 0 0-3.488 3.357 3.185 3.185 0 0 0 .272 2.419 3.172 3.172 0 0 0 1.905 1.515c1.652.288 3.33-1.784 2.386-3.174l.472.472ZM299.764 92.498a6.06 6.06 0 0 0-.708-1.574l-.131-.131a.29.29 0 0 0-.21 0c-.525.288-.603 1.232-1.18 1.259h-.315c-.078 0 0 .34 0 .472a1.516 1.516 0 0 0 1.25.424 1.52 1.52 0 0 0 1.11-.713v.263h.184ZM287.833 78.204a11.892 11.892 0 0 0-1.337-2.937.713.713 0 0 0-.288-.263.45.45 0 0 0-.394 0c-.97.525-1.101 2.282-2.228 2.334h-.577c-.158 0 0 .63 0 .866a2.934 2.934 0 0 0 4.483-.55v.498l.341.052ZM316.886 71.097a10.518 10.518 0 0 0-1.311-2.938s-.158-.236-.289-.262a.497.497 0 0 0-.393 0c-.97.55-1.101 2.308-2.229 2.334h-.577c-.157 0 0 .63.131.892a2.966 2.966 0 0 0 3.572.338 2.96 2.96 0 0 0 .912-.889v.472l.184.053ZM303.041 82.846a2.615 2.615 0 0 0-.682-2.15c-.287.2-.528.46-.707.76a.918.918 0 0 0 0 .997c.314.367.865.262 1.337.157l-.21.341.262-.105ZM297.85 80.617a1.18 1.18 0 0 0-.368-.63.943.943 0 0 0-.603-.13c-.58-.001-1.159-.054-1.73-.158l1.835 2.255a.264.264 0 0 1 0 .184c0 .262-.209.472-.288.734-.079.263.236.709.603.918 2.57 1.443.891-2.045.551-3.173ZM270.213 70.257a.918.918 0 0 0-.315-.55.944.944 0 0 0-.603 0c-.58 0-1.159-.053-1.73-.158l1.835 2.256a.407.407 0 0 1 0 .183c0 .263-.21.472-.288.735-.079.262.236.708.577.891 2.569 1.128.891-2.203.524-3.357ZM305.794 63.622l-.445-.682a1.367 1.367 0 0 0-.472 1.495.816.816 0 0 0 1.034.42.811.811 0 0 0 .329-.236c.184-.289.315-.84.629-.656l-1.075-.34ZM263.396 62.993a1.204 1.204 0 0 1-1.731.944 1.156 1.156 0 0 1 .547-2.152 1.152 1.152 0 0 1 1.184 1.103v.105ZM273.438 71.359c.498.393 1.049 1.023.734 1.574-.314.55-1.075.42-1.651.235-.577-.183-.525-.21-.577-.472-.053-.262 1.153-.734 1.127-1.363.157 0 .367.183.236.288l.131-.262ZM313.844 116.023a2.909 2.909 0 0 0-1.494-2.23 1.476 1.476 0 0 0-1.311.002 1.476 1.476 0 0 0-.787 1.048 1.016 1.016 0 0 0 .236.76l.341.341a2.62 2.62 0 0 0 1.757.603 1.204 1.204 0 0 0 1.101-1.285l.157.761ZM333.352 126.566a1.28 1.28 0 0 0-.734.341c-.14.232-.254.478-.341.734-.262.603-.97.839-1.39 1.338a3.412 3.412 0 0 0 0 3.226c0 .236.21.524.473.577a.861.861 0 0 0 .55-.132c1.259-.472 2.045.709 3.225.577a3.447 3.447 0 0 0 2.452-4.209 3.444 3.444 0 0 0-4.209-2.452h-.026ZM303.566 92.366c.162.17.28.377.341.604a1.968 1.968 0 0 1-1.469-.945c-.21-.262-.419-.629-.262-.918.157-.288.393-.288.577-.42.183-.13.55-.97 1.022-.917a.575.575 0 0 1 .446.577 1.668 1.668 0 0 1-.21.787l-.76 1.573.315-.34ZM297.011 98.923c0-.498-.813-.55-1.102-.157a1.808 1.808 0 0 0 0 1.442 1.783 1.783 0 0 0 1.495-1.233l-.393-.052ZM295.542 91.737a1.877 1.877 0 0 0-.288-.656.656.656 0 0 0-.63-.262c-.367.131-.419.656-.707.944-.289.289-.787.289-.971.656-.183.367.184.787.577.865.392.023.781-.088 1.101-.314.328-.139.604-.377.787-.682a.735.735 0 0 0 0-.944l.131.393ZM294.467 88.72a.47.47 0 0 1-.498.342.972.972 0 0 1-.551-.42.712.712 0 0 1-.131-.393.602.602 0 0 1 .603-.577.628.628 0 0 1 .551.656.71.71 0 0 1-.629.603l.655-.21ZM261.796 95.094a.47.47 0 0 1-.498.34.972.972 0 0 1-.551-.419.656.656 0 0 1-.131-.393.606.606 0 0 1 .603-.577.628.628 0 0 1 .551.656.71.71 0 0 1-.629.603l.655-.21ZM297.482 87.567a.685.685 0 0 0 .495-.466.687.687 0 0 0-.154-.662c-.26.031-.501.152-.681.341a.55.55 0 0 0 0 .682.361.361 0 0 0 .314.178.366.366 0 0 0 .315-.178l-.289.105ZM264.209 51.715a.682.682 0 0 0 .34-1.128 1.31 1.31 0 0 0-.681.341.601.601 0 0 0 0 .709.364.364 0 0 0 .314.178.366.366 0 0 0 .315-.178l-.288.078ZM253.878 74.742a1.87 1.87 0 0 0 0-1.705l-1.259.709c-.214.095-.395.25-.524.445a.775.775 0 0 0 .018.635.786.786 0 0 0 .48.415 1.102 1.102 0 0 0 1.154-.473l.131-.026ZM267.303 79.699l1.494 2.15c-.236.394-.813.132-1.154-.183a2.208 2.208 0 0 1-.786-1.05.815.815 0 0 1 .603-1.022l-.157.105ZM328.37 100.969a.922.922 0 0 0 .193-.872.91.91 0 0 0-.638-.623 1.364 1.364 0 0 0-1.521.891 1.1 1.1 0 0 0 0 .814.998.998 0 0 0 1.127.419 2.983 2.983 0 0 0 1.075-.629h-.236ZM270.816 68.684a1.494 1.494 0 0 0 .341-1.653c-.435.03-.845.217-1.154.525a1.235 1.235 0 0 0-.209 1.547c.367.446 1.284.236 1.258-.34l-.236-.08ZM269.138 74.585a.89.89 0 0 1-.708.839l-.76-1.102a1.011 1.011 0 0 1 .799-.385 1.02 1.02 0 0 1 .8.386l-.131.262ZM317.83 107.473l-1.233 1.678a1.425 1.425 0 0 0-.262.525c-.009.209.036.417.131.603.262.682.734 1.521 1.495 1.469.76-.053 1.101-1.049 1.468-1.784.629-1.363 4.143-3.566 2.832-5.245-1.311-1.678-3.671 1.731-4.431 2.754ZM324.752 97.926l.393.368a3.062 3.062 0 0 1-1.18.34.992.992 0 0 1-.97-.629c0-.393.315-.892.708-.734.394.12.742.358.996.682l.053-.027ZM292.238 95.225a.865.865 0 0 1-.655.708.919.919 0 0 1-.918-.315c-.131-.183-.157-.524 0-.629H292.265v.21l-.027.026ZM285.709 97.14c-.419-.132-.812.183-1.101.524-.288.341-.603.682-1.022.63a.288.288 0 0 1-.289-.158c0-.288.21-.524.393-.76.115-.207.203-.428.263-.656a1.466 1.466 0 0 1 1.389-.84.865.865 0 0 1 .367.787.806.806 0 0 1-.576.656l.576-.183ZM284.556 93.1l-.184-.445a.549.549 0 0 0-.603.42.498.498 0 0 0 .393.603c.263 0 .525-.289.446-.525l-.052-.052ZM273.097 92.104l-.183-.446a.55.55 0 0 0-.603.42.498.498 0 0 0 .393.603.445.445 0 0 0 .446-.524l-.053-.053ZM300.576 85.967c0 .315.394.498.708.42.315-.079.525-.341.813-.472a1.13 1.13 0 0 1 .97 0 .499.499 0 0 1 .341.42.62.62 0 0 1-.131.366 3.331 3.331 0 0 1-1.258 1.364 1.574 1.574 0 0 1-1.783 0 1.227 1.227 0 0 1-.422-1.187 1.234 1.234 0 0 1 .841-.937l-.079.026ZM257.68 33.986c0 .315.393.498.708.393.282-.137.553-.295.812-.472a1.238 1.238 0 0 1 .971 0 .578.578 0 0 1 .34.446.697.697 0 0 1-.131.367 3.508 3.508 0 0 1-1.258 1.364 1.627 1.627 0 0 1-1.783 0 1.285 1.285 0 0 1-.42-1.18 1.347 1.347 0 0 1 .839-.944l-.078.026ZM303.828 78.073a.748.748 0 0 0-.014-.581.728.728 0 0 0-.432-.39 1.075 1.075 0 0 0-1.101.237c-.131 0-.236.314-.158.445a.526.526 0 0 0 .315.158l1.442.262-.052-.131ZM257.365 50.246a3.905 3.905 0 0 0 2.412-1.81.701.701 0 0 0 0-.497c0-.368-.655-.289-1.048-.289-.394 0-1.233-.603-1.915-.63a2.62 2.62 0 0 0-1.468.682c-.629.473-1.311 1.286-.891 1.968a1.483 1.483 0 0 0 1.101.498 7.707 7.707 0 0 0 2.622-.131l-.813.21ZM286.365 61.629c.629 0 .891-.76.944-1.364a1.322 1.322 0 0 0-.018-.584 1.323 1.323 0 0 0-.27-.517c-.42-.341-1.023 0-1.443.236l-1.153.76c-.158 0-.341.262-.367.472a.595.595 0 0 0 .209.472 6.562 6.562 0 0 0 2.124 1.653l-.026-1.128Z"/><path d="M279.574 80.827c5.375 1.442 6.476-4.983 2.307-7.265-4.169-2.282-6.974 6.032-2.307 7.265ZM303.854 100.129a1.302 1.302 0 0 1-1.036.508 1.309 1.309 0 0 1-1.035-.508 3.199 3.199 0 0 1 1.442-1.206 1.126 1.126 0 0 1 1.468.76l-.603.919-.236-.473ZM288.908 110.384l-.524-.708a7.868 7.868 0 0 1-2.779 1.521c-.511.127-1.011.293-1.495.498a1.548 1.548 0 0 0-.865 1.259c0 .997 1.232 1.495 2.229 1.443a4.306 4.306 0 0 0 3.251-1.653 2.986 2.986 0 0 0 0-3.514l-1.023.708 1.206.446ZM283.009 103.591c.236-.341 0-.498-.472-.393a4.973 4.973 0 0 0-1.233.708l-2.622 1.888c-.524.368-1.101.813-1.206 1.181-.105.367.315.419.734.288a5.545 5.545 0 0 0 1.39-.656c1.521-.918 3.278-2.176 3.618-3.278l-.865.184.656.078ZM280.098 98.346a.31.31 0 0 1-.11.243.315.315 0 0 1-.257.072.838.838 0 0 1-.472-.263.897.897 0 0 1-.236-.393.658.658 0 0 1 .341-.734.866.866 0 0 1 .839 0 .63.63 0 0 1 .236.34.289.289 0 0 1-.21.342l-.131.393ZM290.691 71.621a10.822 10.822 0 0 0 1.521-1.914.735.735 0 0 0-.577-.289 2.201 2.201 0 0 0-2.333 2.177.733.733 0 0 0 .157.472.55.55 0 0 0 .682 0 1.79 1.79 0 0 0 .524-.472l.026.026ZM294.1 84.472l-.236-.472a1.335 1.335 0 0 0-.629.42c-.131.236 0 .63.288.577a.544.544 0 0 0 .262-.158l.708-.63-.393.263ZM255.949 65.248a3.214 3.214 0 0 0-.236-1.233 1.053 1.053 0 0 0-.996-.629.996.996 0 0 0-.551.262 1.235 1.235 0 0 0 0 1.705 1.207 1.207 0 0 0 1.678-.157l.105.052ZM270.475 49.329a.838.838 0 0 1-.498 1.363 2.2 2.2 0 0 1-.734-.655c.236-.294.572-.49.944-.551l.288-.157ZM275.588 58.665c.184-.315-.445-.603-.655-.288-.21.314 0 .734.262.97a.81.81 0 0 0 .393-.865v.183ZM306.581 111.459l-.498-.682a1.268 1.268 0 0 0-.525.368.791.791 0 0 0 .663.573.781.781 0 0 0 .308-.023l.052-.236ZM379.16 105.689l-.499-.681a1.572 1.572 0 0 0-.55.367.839.839 0 0 0 .996.524l.053-.21ZM342.057 99.788a2.967 2.967 0 0 1 1.023 2.623.525.525 0 0 1-.157.341.598.598 0 0 1-.525 0c-1.101-.21-2.412-.656-2.622-1.757a1.449 1.449 0 0 1 .547-1.222 1.441 1.441 0 0 1 1.315-.247l.236.892.183-.63ZM325.46 189.195a4.96 4.96 0 0 0-1.547-4.59 5.246 5.246 0 0 0-3.487 3.357 3.2 3.2 0 0 0 2.176 3.934c1.678.289 3.33-1.783 2.412-3.173l.446.472ZM320.478 174.036a6.027 6.027 0 0 0-.708-1.574h-.157a.315.315 0 0 0-.21 0c-.525.289-.577 1.233-1.18 1.259a.67.67 0 0 0-.315 0c-.131 0 0 .341 0 .472a1.57 1.57 0 0 0 1.9.185c.195-.12.361-.282.486-.473v.236l.184-.105ZM337.6 152.635a10.658 10.658 0 0 0-1.337-2.937s-.158-.236-.289-.263a.524.524 0 0 0-.393 0c-.97.551-1.101 2.308-2.203 2.335h-.603c-.157 0 0 .629.132.891a2.965 2.965 0 0 0 3.571.339c.365-.227.676-.53.912-.89v.473l.21.052ZM323.703 164.385a2.617 2.617 0 0 0-.655-2.151 2.248 2.248 0 0 0-.735.761.915.915 0 0 0 0 .996c.315.341.892.262 1.364.158l-.21.34.236-.104ZM318.459 162.129a.789.789 0 0 0-.619-.682.808.808 0 0 0-.325 0 9.639 9.639 0 0 1-1.678-.157c.629.734 1.232 1.495 1.835 2.255.058.05.103.113.131.184 0 .262-.235.472-.288.734-.052.263.236.708.577.892 2.465 1.364.787-2.072.367-3.226ZM326.509 145.16l-.498-.681a1.358 1.358 0 0 0-.499 1.494c.236.525 1.102.682 1.364.184.262-.498.341-.839.629-.656l-.996-.341ZM334.532 197.561a2.887 2.887 0 0 0-1.468-2.229c-.865-.394-2.098 0-2.124 1.049-.014.273.07.543.236.761.103.125.227.232.367.314a2.626 2.626 0 0 0 1.731.63 1.235 1.235 0 0 0 1.101-1.285l.157.76ZM324.254 173.905c.177.158.297.37.341.603a1.97 1.97 0 0 1-1.469-.944c-.21-.262-.419-.63-.236-.918.184-.289.367-.289.551-.446.183-.157.551-.944 1.022-.892a.63.63 0 0 1 .472.577c-.014.27-.095.531-.236.761l-.734 1.6.289-.341ZM318.066 169.158a.704.704 0 0 0 .491-.482.716.716 0 0 0-.15-.672 1.234 1.234 0 0 0-.656.341.574.574 0 0 0 0 .708.371.371 0 0 0 .315.178.357.357 0 0 0 .18-.048.356.356 0 0 0 .134-.13l-.314.105ZM349.085 182.586a.946.946 0 0 0-.472-1.495 1.362 1.362 0 0 0-1.521.892.964.964 0 0 0 0 .813.945.945 0 0 0 1.101.419 3.084 3.084 0 0 0 1.101-.629h-.209ZM338.544 189.011l-1.259 1.679a1.413 1.413 0 0 0-.262.524c-.009.209.036.417.131.604.289.681.734 1.494 1.495 1.468.76-.026 1.127-1.049 1.468-1.783.656-1.364 4.143-3.567 2.858-5.245-1.285-1.679-3.54 1.73-4.431 2.753ZM345.44 179.465l.393.367a3.064 3.064 0 0 1-1.18.341.971.971 0 0 1-.944-.629c0-.42.289-.892.682-.735.397.114.747.353.996.682l.053-.026ZM321.265 167.506c0 .314.393.498.708.419.288-.142.568-.299.839-.472a1.071 1.071 0 0 1 .943 0 .498.498 0 0 1 .341.42.59.59 0 0 1 0 .367 3.386 3.386 0 0 1-1.284 1.364 1.633 1.633 0 0 1-1.783 0 1.235 1.235 0 0 1-.394-1.207 1.23 1.23 0 0 1 .296-.572c.147-.162.335-.281.543-.346l-.209.027ZM324.542 159.611a.757.757 0 0 0-.446-.97 1.128 1.128 0 0 0-1.127.236.389.389 0 0 0-.153.197.386.386 0 0 0-.004.249.517.517 0 0 0 .314.157l1.469.262-.053-.131ZM324.542 181.668a1.287 1.287 0 0 1-2.045 0c.34-.536.833-.956 1.416-1.207.603-.183 1.416 0 1.468.761l-.603.918-.236-.472ZM327.295 192.945c-.183-.21-.341-.446-.524-.682a1.748 1.748 0 0 0-.525.368.815.815 0 0 0 .997.55l.052-.236ZM362.877 181.327a2.935 2.935 0 0 1 .996 2.623.664.664 0 0 1-.131.341.587.587 0 0 1-.551 0c-1.101-.184-2.412-.63-2.622-1.731a1.44 1.44 0 0 1 1.862-1.469l.262.892.184-.656ZM305.637 152.74a2.934 2.934 0 0 1 .996 2.623.392.392 0 0 1-.131.341h-.55c-1.075-.21-2.413-.656-2.622-1.758a1.416 1.416 0 0 1 1.835-1.468l.262.891.21-.629Z"/></g><g fill="#5FCCCC" opacity=".51" style="mix-blend-mode:soft-light"><path d="m91.756 31.626-6.818-2.964a47.948 47.948 0 0 1 3.042-1.888l4.956 2.15 3.592 1.6A571.64 571.64 0 0 0 257.444 74.35c6.057.734 12.166 1.364 18.354 1.993 14.736 1.521 29.996 3.12 44.785 6.11a183.561 183.561 0 0 1 18.852 4.8c.787 1.26 1.547 2.623 2.282 3.83a182.259 182.259 0 0 0-21.816-5.85c-14.657-2.963-29.813-4.536-44.575-6.058-6.109-.629-12.219-1.259-18.354-1.993A574.755 574.755 0 0 1 95.348 33.2l-3.592-1.573ZM360.412 135.902c-14.526-.839-28.502-6.084-41.953-10.884l-8.155-2.884c-36.708-12.747-72.29-18.621-105.905-17.494-7.315.263-14.736.84-21.92 1.417a311.37 311.37 0 0 1-34.087 1.495 159.926 159.926 0 0 1-93.87-34.095c-3.727-2.86-7.233-6-10.488-9.39a40.462 40.462 0 0 1 1.94-2.28 91.407 91.407 0 0 0 10.28 9.388 156.931 156.931 0 0 0 92.138 33.439 313.248 313.248 0 0 0 33.72-1.495c7.211-.577 14.684-1.18 22.051-1.416 34.087-1.154 69.957 4.8 107.007 17.624 2.622.944 5.401 1.941 8.154 2.938 13.111 4.668 26.509 9.52 40.275 10.674.289.996.551 2.124.813 2.963Z"/></g><path fill="#5FCCCC" d="M345.073 269.737a89.35 89.35 0 0 1-1.678 3.068c-1.967 0-3.96.289-5.9.367-14.29.63-33.379-1.521-43.342-15.342a65.792 65.792 0 0 1-5.245-9.206c-2.622-5.56-5.244-10.805-10.121-13.638a19.817 19.817 0 0 0-11.983-1.94c-7.866.918-15.05 4.668-22.549 8.654a83.897 83.897 0 0 1-19.01 8.236c-10.121 2.622-20.977 1.18-30.468 0l-1.076-.158c-21.71-2.622-43.421-5.245-65.158-8.156a29.65 29.65 0 0 1-11.982-3.357 10.99 10.99 0 0 1-5.507-11.645 15.422 15.422 0 0 1 4.169-6.347 20.188 20.188 0 0 0 2.858-3.462c2.622-4.484.708-10.49-2.464-13.795a24.996 24.996 0 0 0-14.291-6.609c-13.556-2.308-27.531.787-41.009 3.777-11.825 2.622-24.044 5.245-36.341 4.563a64.854 64.854 0 0 1-23.599-6.163c0-1.128-.157-2.255-.262-3.383a62.932 62.932 0 0 0 23.992 6.609c11.852.76 23.86-1.915 35.502-4.485 13.766-3.068 28.004-6.216 42.111-3.803a27.793 27.793 0 0 1 15.942 7.449c4.038 4.222 6.293 11.539 2.884 17.335a24.217 24.217 0 0 1-3.251 3.987 13.113 13.113 0 0 0-3.357 5.062 8.184 8.184 0 0 0 4.196 8.392 27.167 27.167 0 0 0 10.829 2.964c21.71 2.78 43.43 5.498 65.158 8.156l1.075.131c9.728 1.233 19.797 2.466 29.393 0a82.774 82.774 0 0 0 18.355-7.868c7.394-3.934 15.077-7.868 23.598-8.969a22.097 22.097 0 0 1 13.792 2.308c5.69 3.278 8.548 9.179 11.328 14.896a58.756 58.756 0 0 0 4.824 8.76c9.204 12.772 27.296 14.713 40.826 14.136a376.54 376.54 0 0 0 7.761-.524ZM239.797 357.989c-1.049.341-2.019.682-3.041.97a82.525 82.525 0 0 1-7.395-11.67l-1.704-3.016c-11.327-19.644-25.801-34.095-41.953-41.727-18.538-8.786-39.855-9.337-60.124-8.655-23.887.813-51.025 3.725-71.267 19.041l-1.757-2.334c20.845-15.736 48.587-18.805 72.946-19.67 20.635-.708 42.372 0 61.461 8.969 16.624 7.868 31.464 22.739 43.159 42.907.577.997 1.154 2.046 1.704 3.042a79.039 79.039 0 0 0 7.971 12.143ZM325.801 67.976l-4.877-.97a301.734 301.734 0 0 0-64.188-6.138 19.58 19.58 0 0 1-7.604-.918c-5.244-2.098-7.316-7.448-9.177-12.64a46.183 46.183 0 0 0-2.78-6.531c-4.693-8.262-14.814-11.094-22.707-10.963a82.368 82.368 0 0 0-23.1 4.852l-3.697 1.154c-20.793 6.294-37.548 8.183-52.756 5.953a63.424 63.424 0 0 1-38.387-19.932c.918-.472 1.81-.97 2.622-1.416a60.458 60.458 0 0 0 36.106 18.358c14.736 2.177 31.097.315 51.418-5.848l3.697-1.154a85.444 85.444 0 0 1 23.94-5.01c8.705 0 19.98 3.096 25.303 12.432a51.707 51.707 0 0 1 2.989 7.003c1.73 4.8 3.409 9.31 7.525 10.936 2.051.639 4.205.88 6.346.708a302.39 302.39 0 0 1 65.027 6.4l1.337.262c1.022 1.049 2.019 2.36 2.963 3.462Z" opacity=".51" style="mix-blend-mode:soft-light"/></g><defs><radialGradient id="a" cx="0" cy="0" r="1" gradientTransform="matrix(358.331 0 0 358.412 150.909 353.871)" gradientUnits="userSpaceOnUse"><stop offset=".59" stop-color="#42218E"/><stop offset="1" stop-color="#8657E8"/></radialGradient></defs></svg>